solid OpenSCAD_Model
  facet normal -1 0 0
    outer loop
      vertex -60 -6 0
      vertex -60 -6 15
      vertex -60 -4.75 0
    endloop
  endfacet
  facet normal -1 0 0
    outer loop
      vertex -60 -4.75 0
      vertex -60 -6 15
      vertex -60 -4.75 15
    endloop
  endfacet
  facet normal -0.997452 -0.0713388 0
    outer loop
      vertex -60 -6 0
      vertex -59.9593 -6.56926 0
      vertex -60 -6 15
    endloop
  endfacet
  facet normal -0.997452 -0.0713388 0
    outer loop
      vertex -60 -6 15
      vertex -59.9593 -6.56926 0
      vertex -59.9593 -6.56926 15
    endloop
  endfacet
  facet normal 0 0 -1
    outer loop
      vertex -60 -6 0
      vertex -60 -4.75 0
      vertex -59.9593 -6.56926 0
    endloop
  endfacet
  facet normal 0 0 -1
    outer loop
      vertex -59.9593 -6.56926 0
      vertex -60 -4.75 0
      vertex -49.5 -4.75 0
    endloop
  endfacet
  facet normal 0 0 -1
    outer loop
      vertex -59.9593 -6.56926 0
      vertex -49.5 -4.75 0
      vertex -48.8596 -4.7042 0
    endloop
  endfacet
  facet normal 0 0 -1
    outer loop
      vertex -48.8596 -4.7042 0
      vertex 56 10 0
      vertex -59.9593 -6.56926 0
    endloop
  endfacet
  facet normal 0 0 -1
    outer loop
      vertex -48.2322 -4.56772 0
      vertex 56 10 0
      vertex -48.8596 -4.7042 0
    endloop
  endfacet
  facet normal 0 0 -1
    outer loop
      vertex -47.6306 -4.34334 0
      vertex 56 10 0
      vertex -48.2322 -4.56772 0
    endloop
  endfacet
  facet normal 0 0 -1
    outer loop
      vertex -47.0671 -4.03564 0
      vertex 56 10 0
      vertex -47.6306 -4.34334 0
    endloop
  endfacet
  facet normal 0 0 -1
    outer loop
      vertex -46.5531 -3.65087 0
      vertex 56 10 0
      vertex -47.0671 -4.03564 0
    endloop
  endfacet
  facet normal 0 0 -1
    outer loop
      vertex -46.0991 -3.19687 0
      vertex 56 10 0
      vertex -46.5531 -3.65087 0
    endloop
  endfacet
  facet normal 0 0 -1
    outer loop
      vertex -45.7144 -2.68288 0
      vertex 56 10 0
      vertex -46.0991 -3.19687 0
    endloop
  endfacet
  facet normal 0 0 -1
    outer loop
      vertex -45.4067 -2.11937 0
      vertex 56 10 0
      vertex -45.7144 -2.68288 0
    endloop
  endfacet
  facet normal 0 0 -1
    outer loop
      vertex -45.1823 -1.5178 0
      vertex 56 10 0
      vertex -45.4067 -2.11937 0
    endloop
  endfacet
  facet normal 0 0 -1
    outer loop
      vertex -45.0458 -0.890417 0
      vertex 56 10 0
      vertex -45.1823 -1.5178 0
    endloop
  endfacet
  facet normal 0 0 -1
    outer loop
      vertex -45 -0.25 0
      vertex 56 10 0
      vertex -45.0458 -0.890417 0
    endloop
  endfacet
  facet normal 0 0 -1
    outer loop
      vertex -45 0.25 0
      vertex 56 10 0
      vertex -45 -0.25 0
    endloop
  endfacet
  facet normal 0 0 -1
    outer loop
      vertex -45.0458 0.890417 0
      vertex 56 10 0
      vertex -45 0.25 0
    endloop
  endfacet
  facet normal 0 0 -1
    outer loop
      vertex -45.1823 1.5178 0
      vertex 56 10 0
      vertex -45.0458 0.890417 0
    endloop
  endfacet
  facet normal 0 0 -1
    outer loop
      vertex -45.4067 2.11937 0
      vertex 56 10 0
      vertex -45.1823 1.5178 0
    endloop
  endfacet
  facet normal 0 0 -1
    outer loop
      vertex -45.7144 2.68288 0
      vertex 56 10 0
      vertex -45.4067 2.11937 0
    endloop
  endfacet
  facet normal 0 0 -1
    outer loop
      vertex -46.0991 3.19687 0
      vertex 56 10 0
      vertex -45.7144 2.68288 0
    endloop
  endfacet
  facet normal 0 0 -1
    outer loop
      vertex -46.5531 3.65087 0
      vertex 56 10 0
      vertex -46.0991 3.19687 0
    endloop
  endfacet
  facet normal 0 0 -1
    outer loop
      vertex -49.5 4.75 0
      vertex -60 4.75 0
      vertex -60 6 0
    endloop
  endfacet
  facet normal 0 0 -1
    outer loop
      vertex -49.5 4.75 0
      vertex -60 6 0
      vertex -48.8596 4.7042 0
    endloop
  endfacet
  facet normal 0 0 -1
    outer loop
      vertex -48.8596 4.7042 0
      vertex -60 6 0
      vertex -59.9593 6.56926 0
    endloop
  endfacet
  facet normal 0 0 -1
    outer loop
      vertex -48.8596 4.7042 0
      vertex -59.9593 6.56926 0
      vertex -59.838 7.12693 0
    endloop
  endfacet
  facet normal 0 0 -1
    outer loop
      vertex -48.8596 4.7042 0
      vertex -59.838 7.12693 0
      vertex -48.2322 4.56772 0
    endloop
  endfacet
  facet normal 0 0 -1
    outer loop
      vertex -48.2322 4.56772 0
      vertex -59.838 7.12693 0
      vertex -59.6385 7.66166 0
    endloop
  endfacet
  facet normal 0 0 -1
    outer loop
      vertex -48.2322 4.56772 0
      vertex -59.6385 7.66166 0
      vertex -59.365 8.16256 0
    endloop
  endfacet
  facet normal 0 0 -1
    outer loop
      vertex -48.2322 4.56772 0
      vertex -59.365 8.16256 0
      vertex -59.023 8.61944 0
    endloop
  endfacet
  facet normal 0 0 -1
    outer loop
      vertex -48.2322 4.56772 0
      vertex -59.023 8.61944 0
      vertex -47.6306 4.34334 0
    endloop
  endfacet
  facet normal 0 0 -1
    outer loop
      vertex -47.6306 4.34334 0
      vertex -59.023 8.61944 0
      vertex -58.6194 9.023 0
    endloop
  endfacet
  facet normal 0 0 -1
    outer loop
      vertex -47.6306 4.34334 0
      vertex -58.6194 9.023 0
      vertex -58.1626 9.36501 0
    endloop
  endfacet
  facet normal 0 0 -1
    outer loop
      vertex -47.6306 4.34334 0
      vertex -58.1626 9.36501 0
      vertex -57.6617 9.63853 0
    endloop
  endfacet
  facet normal 0 0 -1
    outer loop
      vertex -47.6306 4.34334 0
      vertex -57.6617 9.63853 0
      vertex -57.1269 9.83797 0
    endloop
  endfacet
  facet normal 0 0 -1
    outer loop
      vertex -47.6306 4.34334 0
      vertex -57.1269 9.83797 0
      vertex -47.0671 4.03564 0
    endloop
  endfacet
  facet normal 0 0 -1
    outer loop
      vertex -47.0671 4.03564 0
      vertex -57.1269 9.83797 0
      vertex -56.5693 9.95929 0
    endloop
  endfacet
  facet normal 0 0 -1
    outer loop
      vertex -47.0671 4.03564 0
      vertex -56.5693 9.95929 0
      vertex -56 10 0
    endloop
  endfacet
  facet normal 0 0 -1
    outer loop
      vertex -47.0671 4.03564 0
      vertex -56 10 0
      vertex 56 10 0
    endloop
  endfacet
  facet normal 0 0 -1
    outer loop
      vertex -47.0671 4.03564 0
      vertex 56 10 0
      vertex -46.5531 3.65087 0
    endloop
  endfacet
  facet normal 0 0 -1
    outer loop
      vertex -59.9593 -6.56926 0
      vertex 56 10 0
      vertex 56.5693 9.95929 0
    endloop
  endfacet
  facet normal 0 0 -1
    outer loop
      vertex -59.9593 -6.56926 0
      vertex 56.5693 9.95929 0
      vertex 57.1269 9.83797 0
    endloop
  endfacet
  facet normal 0 0 -1
    outer loop
      vertex -59.9593 -6.56926 0
      vertex 57.1269 9.83797 0
      vertex 57.6617 9.63853 0
    endloop
  endfacet
  facet normal 0 0 -1
    outer loop
      vertex -59.9593 -6.56926 0
      vertex 57.6617 9.63853 0
      vertex 58.1626 9.36501 0
    endloop
  endfacet
  facet normal 0 0 -1
    outer loop
      vertex -59.9593 -6.56926 0
      vertex 58.1626 9.36501 0
      vertex 58.6194 9.023 0
    endloop
  endfacet
  facet normal 0 0 -1
    outer loop
      vertex -59.9593 -6.56926 0
      vertex 58.6194 9.023 0
      vertex 59.023 8.61944 0
    endloop
  endfacet
  facet normal 0 0 -1
    outer loop
      vertex -59.9593 -6.56926 0
      vertex 59.023 8.61944 0
      vertex 59.365 8.16256 0
    endloop
  endfacet
  facet normal 0 0 -1
    outer loop
      vertex -59.9593 -6.56926 0
      vertex 59.365 8.16256 0
      vertex 59.6385 7.66166 0
    endloop
  endfacet
  facet normal 0 0 -1
    outer loop
      vertex -59.9593 -6.56926 0
      vertex 59.6385 7.66166 0
      vertex 59.838 7.12693 0
    endloop
  endfacet
  facet normal 0 0 -1
    outer loop
      vertex -59.9593 -6.56926 0
      vertex 59.838 7.12693 0
      vertex 59.9593 6.56926 0
    endloop
  endfacet
  facet normal 0 0 -1
    outer loop
      vertex -59.9593 -6.56926 0
      vertex 59.9593 6.56926 0
      vertex 60 6 0
    endloop
  endfacet
  facet normal 0 0 -1
    outer loop
      vertex -59.9593 -6.56926 0
      vertex 60 6 0
      vertex 60 -6 0
    endloop
  endfacet
  facet normal 0 0 -1
    outer loop
      vertex -59.9593 -6.56926 0
      vertex 60 -6 0
      vertex 59.9593 -6.56926 0
    endloop
  endfacet
  facet normal 0 0 -1
    outer loop
      vertex -59.9593 -6.56926 0
      vertex 59.9593 -6.56926 0
      vertex 59.838 -7.12693 0
    endloop
  endfacet
  facet normal 0 0 -1
    outer loop
      vertex -59.9593 -6.56926 0
      vertex 59.838 -7.12693 0
      vertex 59.6385 -7.66166 0
    endloop
  endfacet
  facet normal 0 0 -1
    outer loop
      vertex -59.9593 -6.56926 0
      vertex 59.6385 -7.66166 0
      vertex 59.365 -8.16256 0
    endloop
  endfacet
  facet normal 0 0 -1
    outer loop
      vertex -59.9593 -6.56926 0
      vertex 59.365 -8.16256 0
      vertex 59.023 -8.61944 0
    endloop
  endfacet
  facet normal 0 0 -1
    outer loop
      vertex -59.9593 -6.56926 0
      vertex 59.023 -8.61944 0
      vertex 58.6194 -9.023 0
    endloop
  endfacet
  facet normal 0 0 -1
    outer loop
      vertex -59.9593 -6.56926 0
      vertex 58.6194 -9.023 0
      vertex 58.1626 -9.36501 0
    endloop
  endfacet
  facet normal 0 0 -1
    outer loop
      vertex -59.9593 -6.56926 0
      vertex 58.1626 -9.36501 0
      vertex 57.6617 -9.63853 0
    endloop
  endfacet
  facet normal 0 0 -1
    outer loop
      vertex -59.9593 -6.56926 0
      vertex 57.6617 -9.63853 0
      vertex 57.1269 -9.83797 0
    endloop
  endfacet
  facet normal 0 0 -1
    outer loop
      vertex -59.9593 -6.56926 0
      vertex 57.1269 -9.83797 0
      vertex 56.5693 -9.95929 0
    endloop
  endfacet
  facet normal 0 0 -1
    outer loop
      vertex -59.9593 -6.56926 0
      vertex 56.5693 -9.95929 0
      vertex 56 -10 0
    endloop
  endfacet
  facet normal 0 0 -1
    outer loop
      vertex -59.9593 -6.56926 0
      vertex 56 -10 0
      vertex -56 -10 0
    endloop
  endfacet
  facet normal 0 0 -1
    outer loop
      vertex -59.9593 -6.56926 0
      vertex -56 -10 0
      vertex -56.5693 -9.95929 0
    endloop
  endfacet
  facet normal 0 0 -1
    outer loop
      vertex -59.9593 -6.56926 0
      vertex -56.5693 -9.95929 0
      vertex -57.1269 -9.83797 0
    endloop
  endfacet
  facet normal 0 0 -1
    outer loop
      vertex -59.9593 -6.56926 0
      vertex -57.1269 -9.83797 0
      vertex -57.6617 -9.63853 0
    endloop
  endfacet
  facet normal 0 0 -1
    outer loop
      vertex -59.9593 -6.56926 0
      vertex -57.6617 -9.63853 0
      vertex -58.1626 -9.36501 0
    endloop
  endfacet
  facet normal 0 0 -1
    outer loop
      vertex -59.9593 -6.56926 0
      vertex -58.1626 -9.36501 0
      vertex -58.6194 -9.023 0
    endloop
  endfacet
  facet normal 0 0 -1
    outer loop
      vertex -59.9593 -6.56926 0
      vertex -58.6194 -9.023 0
      vertex -59.023 -8.61944 0
    endloop
  endfacet
  facet normal 0 0 -1
    outer loop
      vertex -59.9593 -6.56926 0
      vertex -59.023 -8.61944 0
      vertex -59.365 -8.16256 0
    endloop
  endfacet
  facet normal 0 0 -1
    outer loop
      vertex -59.9593 -6.56926 0
      vertex -59.365 -8.16256 0
      vertex -59.6385 -7.66166 0
    endloop
  endfacet
  facet normal 0 0 -1
    outer loop
      vertex -59.9593 -6.56926 0
      vertex -59.6385 -7.66166 0
      vertex -59.838 -7.12693 0
    endloop
  endfacet
  facet normal 0 1 0
    outer loop
      vertex -49.5 -4.75 15
      vertex -49.5 -4.75 0
      vertex -60 -4.75 15
    endloop
  endfacet
  facet normal 0 1 0
    outer loop
      vertex -60 -4.75 15
      vertex -49.5 -4.75 0
      vertex -60 -4.75 0
    endloop
  endfacet
  facet normal 0 0 1
    outer loop
      vertex -60 -4.75 15
      vertex -60 -6 15
      vertex -59.9593 -6.56926 15
    endloop
  endfacet
  facet normal 0 0 1
    outer loop
      vertex -59.6385 -7.66166 15
      vertex -60 -4.75 15
      vertex -59.838 -7.12693 15
    endloop
  endfacet
  facet normal 0 0 1
    outer loop
      vertex -59.838 -7.12693 15
      vertex -60 -4.75 15
      vertex -59.9593 -6.56926 15
    endloop
  endfacet
  facet normal 0 0 1
    outer loop
      vertex -59.365 -8.16256 15
      vertex -60 -4.75 15
      vertex -59.6385 -7.66166 15
    endloop
  endfacet
  facet normal 0 0 1
    outer loop
      vertex -59.023 -8.61944 15
      vertex -60 -4.75 15
      vertex -59.365 -8.16256 15
    endloop
  endfacet
  facet normal 0 0 1
    outer loop
      vertex -58.6194 -9.023 15
      vertex -60 -4.75 15
      vertex -59.023 -8.61944 15
    endloop
  endfacet
  facet normal 0 0 1
    outer loop
      vertex -58.1626 -9.36501 15
      vertex -60 -4.75 15
      vertex -58.6194 -9.023 15
    endloop
  endfacet
  facet normal 0 0 1
    outer loop
      vertex -57.6617 -9.63853 15
      vertex -60 -4.75 15
      vertex -58.1626 -9.36501 15
    endloop
  endfacet
  facet normal 0 0 1
    outer loop
      vertex -57.1269 -9.83797 15
      vertex -60 -4.75 15
      vertex -57.6617 -9.63853 15
    endloop
  endfacet
  facet normal 0 0 1
    outer loop
      vertex -56.5693 -9.95929 15
      vertex -60 -4.75 15
      vertex -57.1269 -9.83797 15
    endloop
  endfacet
  facet normal 0 0 1
    outer loop
      vertex -56 -10 15
      vertex -60 -4.75 15
      vertex -56.5693 -9.95929 15
    endloop
  endfacet
  facet normal 0 0 1
    outer loop
      vertex 56 -10 15
      vertex -60 -4.75 15
      vertex -56 -10 15
    endloop
  endfacet
  facet normal 0 0 1
    outer loop
      vertex 56.5693 -9.95929 15
      vertex -60 -4.75 15
      vertex 56 -10 15
    endloop
  endfacet
  facet normal 0 0 1
    outer loop
      vertex 57.1269 -9.83797 15
      vertex -60 -4.75 15
      vertex 56.5693 -9.95929 15
    endloop
  endfacet
  facet normal 0 0 1
    outer loop
      vertex 57.6617 -9.63853 15
      vertex -60 -4.75 15
      vertex 57.1269 -9.83797 15
    endloop
  endfacet
  facet normal 0 0 1
    outer loop
      vertex 58.1626 -9.36501 15
      vertex -60 -4.75 15
      vertex 57.6617 -9.63853 15
    endloop
  endfacet
  facet normal 0 0 1
    outer loop
      vertex 58.6194 -9.023 15
      vertex -60 -4.75 15
      vertex 58.1626 -9.36501 15
    endloop
  endfacet
  facet normal 0 0 1
    outer loop
      vertex 59.023 -8.61944 15
      vertex -60 -4.75 15
      vertex 58.6194 -9.023 15
    endloop
  endfacet
  facet normal 0 0 1
    outer loop
      vertex 59.365 -8.16256 15
      vertex -60 -4.75 15
      vertex 59.023 -8.61944 15
    endloop
  endfacet
  facet normal 0 0 1
    outer loop
      vertex 59.6385 -7.66166 15
      vertex -60 -4.75 15
      vertex 59.365 -8.16256 15
    endloop
  endfacet
  facet normal 0 0 1
    outer loop
      vertex 59.838 -7.12693 15
      vertex -60 -4.75 15
      vertex 59.6385 -7.66166 15
    endloop
  endfacet
  facet normal 0 0 1
    outer loop
      vertex 59.9593 -6.56926 15
      vertex -60 -4.75 15
      vertex 59.838 -7.12693 15
    endloop
  endfacet
  facet normal 0 0 1
    outer loop
      vertex 60 -6 15
      vertex -60 -4.75 15
      vertex 59.9593 -6.56926 15
    endloop
  endfacet
  facet normal 0 0 1
    outer loop
      vertex -49.5 -4.75 15
      vertex -60 -4.75 15
      vertex 60 -6 15
    endloop
  endfacet
  facet normal 0 0 1
    outer loop
      vertex -46.0991 -3.19687 15
      vertex 59.6385 7.66166 15
      vertex 59.365 8.16256 15
    endloop
  endfacet
  facet normal 0 0 1
    outer loop
      vertex -46.0991 -3.19687 15
      vertex 59.838 7.12693 15
      vertex 59.6385 7.66166 15
    endloop
  endfacet
  facet normal 0 0 1
    outer loop
      vertex -46.0991 -3.19687 15
      vertex 59.9593 6.56926 15
      vertex 59.838 7.12693 15
    endloop
  endfacet
  facet normal 0 0 1
    outer loop
      vertex -46.0991 -3.19687 15
      vertex 60 6 15
      vertex 59.9593 6.56926 15
    endloop
  endfacet
  facet normal 0 0 1
    outer loop
      vertex -46.0991 -3.19687 15
      vertex -46.5531 -3.65087 15
      vertex 60 6 15
    endloop
  endfacet
  facet normal 0 0 1
    outer loop
      vertex -45.7144 -2.68288 15
      vertex 56.5693 9.95929 15
      vertex 56 10 15
    endloop
  endfacet
  facet normal 0 0 1
    outer loop
      vertex -45.7144 -2.68288 15
      vertex 57.1269 9.83797 15
      vertex 56.5693 9.95929 15
    endloop
  endfacet
  facet normal 0 0 1
    outer loop
      vertex -45.7144 -2.68288 15
      vertex 57.6617 9.63853 15
      vertex 57.1269 9.83797 15
    endloop
  endfacet
  facet normal 0 0 1
    outer loop
      vertex -45.7144 -2.68288 15
      vertex 58.1626 9.36501 15
      vertex 57.6617 9.63853 15
    endloop
  endfacet
  facet normal 0 0 1
    outer loop
      vertex -45.7144 -2.68288 15
      vertex 58.6194 9.023 15
      vertex 58.1626 9.36501 15
    endloop
  endfacet
  facet normal 0 0 1
    outer loop
      vertex -45.7144 -2.68288 15
      vertex 59.023 8.61944 15
      vertex 58.6194 9.023 15
    endloop
  endfacet
  facet normal 0 0 1
    outer loop
      vertex -45.7144 -2.68288 15
      vertex -46.0991 -3.19687 15
      vertex 59.023 8.61944 15
    endloop
  endfacet
  facet normal 0 0 1
    outer loop
      vertex -60 6 15
      vertex -60 4.75 15
      vertex -59.9593 6.56926 15
    endloop
  endfacet
  facet normal 0 0 1
    outer loop
      vertex -56 10 15
      vertex -49.5 4.75 15
      vertex 56 10 15
    endloop
  endfacet
  facet normal 0 0 1
    outer loop
      vertex -49.5 4.75 15
      vertex -48.8596 4.7042 15
      vertex 56 10 15
    endloop
  endfacet
  facet normal 0 0 1
    outer loop
      vertex -48.8596 4.7042 15
      vertex -48.2322 4.56772 15
      vertex 56 10 15
    endloop
  endfacet
  facet normal 0 0 1
    outer loop
      vertex -48.2322 4.56772 15
      vertex -47.6306 4.34334 15
      vertex 56 10 15
    endloop
  endfacet
  facet normal 0 0 1
    outer loop
      vertex -47.6306 4.34334 15
      vertex -47.0671 4.03564 15
      vertex 56 10 15
    endloop
  endfacet
  facet normal 0 0 1
    outer loop
      vertex -47.0671 4.03564 15
      vertex -46.5531 3.65087 15
      vertex 56 10 15
    endloop
  endfacet
  facet normal 0 0 1
    outer loop
      vertex -46.5531 3.65087 15
      vertex -46.0991 3.19687 15
      vertex 56 10 15
    endloop
  endfacet
  facet normal 0 0 1
    outer loop
      vertex -46.0991 3.19687 15
      vertex -45.7144 2.68288 15
      vertex 56 10 15
    endloop
  endfacet
  facet normal 0 0 1
    outer loop
      vertex -45.7144 2.68288 15
      vertex -45.4067 2.11937 15
      vertex 56 10 15
    endloop
  endfacet
  facet normal 0 0 1
    outer loop
      vertex -45.4067 2.11937 15
      vertex -45.1823 1.5178 15
      vertex 56 10 15
    endloop
  endfacet
  facet normal 0 0 1
    outer loop
      vertex -45.1823 1.5178 15
      vertex -45.0458 0.890417 15
      vertex 56 10 15
    endloop
  endfacet
  facet normal 0 0 1
    outer loop
      vertex -45.0458 0.890417 15
      vertex -45 0.25 15
      vertex 56 10 15
    endloop
  endfacet
  facet normal 0 0 1
    outer loop
      vertex -45 0.25 15
      vertex -45 -0.25 15
      vertex 56 10 15
    endloop
  endfacet
  facet normal 0 0 1
    outer loop
      vertex -45 -0.25 15
      vertex -45.0458 -0.890417 15
      vertex 56 10 15
    endloop
  endfacet
  facet normal 0 0 1
    outer loop
      vertex -45.0458 -0.890417 15
      vertex -45.1823 -1.5178 15
      vertex 56 10 15
    endloop
  endfacet
  facet normal 0 0 1
    outer loop
      vertex -45.1823 -1.5178 15
      vertex -45.4067 -2.11937 15
      vertex 56 10 15
    endloop
  endfacet
  facet normal 0 0 1
    outer loop
      vertex -45.4067 -2.11937 15
      vertex -45.7144 -2.68288 15
      vertex 56 10 15
    endloop
  endfacet
  facet normal 0 0 1
    outer loop
      vertex 59.023 8.61944 15
      vertex -46.0991 -3.19687 15
      vertex 59.365 8.16256 15
    endloop
  endfacet
  facet normal 0 0 1
    outer loop
      vertex 60 6 15
      vertex -46.5531 -3.65087 15
      vertex 60 -6 15
    endloop
  endfacet
  facet normal 0 0 1
    outer loop
      vertex -46.5531 -3.65087 15
      vertex -47.0671 -4.03564 15
      vertex 60 -6 15
    endloop
  endfacet
  facet normal 0 0 1
    outer loop
      vertex -47.0671 -4.03564 15
      vertex -47.6306 -4.34334 15
      vertex 60 -6 15
    endloop
  endfacet
  facet normal 0 0 1
    outer loop
      vertex -47.6306 -4.34334 15
      vertex -48.2322 -4.56772 15
      vertex 60 -6 15
    endloop
  endfacet
  facet normal 0 0 1
    outer loop
      vertex -48.2322 -4.56772 15
      vertex -48.8596 -4.7042 15
      vertex 60 -6 15
    endloop
  endfacet
  facet normal 0 0 1
    outer loop
      vertex -48.8596 -4.7042 15
      vertex -49.5 -4.75 15
      vertex 60 -6 15
    endloop
  endfacet
  facet normal 0 0 1
    outer loop
      vertex -60 4.75 15
      vertex -59.838 7.12693 15
      vertex -59.9593 6.56926 15
    endloop
  endfacet
  facet normal 0 0 1
    outer loop
      vertex -60 4.75 15
      vertex -59.6385 7.66166 15
      vertex -59.838 7.12693 15
    endloop
  endfacet
  facet normal 0 0 1
    outer loop
      vertex -60 4.75 15
      vertex -59.365 8.16256 15
      vertex -59.6385 7.66166 15
    endloop
  endfacet
  facet normal 0 0 1
    outer loop
      vertex -60 4.75 15
      vertex -59.023 8.61944 15
      vertex -59.365 8.16256 15
    endloop
  endfacet
  facet normal 0 0 1
    outer loop
      vertex -60 4.75 15
      vertex -58.6194 9.023 15
      vertex -59.023 8.61944 15
    endloop
  endfacet
  facet normal 0 0 1
    outer loop
      vertex -60 4.75 15
      vertex -58.1626 9.36501 15
      vertex -58.6194 9.023 15
    endloop
  endfacet
  facet normal 0 0 1
    outer loop
      vertex -60 4.75 15
      vertex -57.6617 9.63853 15
      vertex -58.1626 9.36501 15
    endloop
  endfacet
  facet normal 0 0 1
    outer loop
      vertex -60 4.75 15
      vertex -57.1269 9.83797 15
      vertex -57.6617 9.63853 15
    endloop
  endfacet
  facet normal 0 0 1
    outer loop
      vertex -60 4.75 15
      vertex -56.5693 9.95929 15
      vertex -57.1269 9.83797 15
    endloop
  endfacet
  facet normal 0 0 1
    outer loop
      vertex -60 4.75 15
      vertex -56 10 15
      vertex -56.5693 9.95929 15
    endloop
  endfacet
  facet normal 0 0 1
    outer loop
      vertex -60 4.75 15
      vertex -49.5 4.75 15
      vertex -56 10 15
    endloop
  endfacet
  facet normal -0.977147 -0.212565 0
    outer loop
      vertex -59.9593 -6.56926 0
      vertex -59.838 -7.12693 0
      vertex -59.9593 -6.56926 15
    endloop
  endfacet
  facet normal -0.977147 -0.212565 0
    outer loop
      vertex -59.9593 -6.56926 15
      vertex -59.838 -7.12693 0
      vertex -59.838 -7.12693 15
    endloop
  endfacet
  facet normal -0.93695 -0.349464 0
    outer loop
      vertex -59.838 -7.12693 0
      vertex -59.6385 -7.66166 0
      vertex -59.838 -7.12693 15
    endloop
  endfacet
  facet normal -0.93695 -0.349464 0
    outer loop
      vertex -59.838 -7.12693 15
      vertex -59.6385 -7.66166 0
      vertex -59.6385 -7.66166 15
    endloop
  endfacet
  facet normal -0.877679 -0.479249 0
    outer loop
      vertex -59.6385 -7.66166 0
      vertex -59.365 -8.16256 0
      vertex -59.6385 -7.66166 15
    endloop
  endfacet
  facet normal -0.877679 -0.479249 0
    outer loop
      vertex -59.6385 -7.66166 15
      vertex -59.365 -8.16256 0
      vertex -59.365 -8.16256 15
    endloop
  endfacet
  facet normal -0.800541 -0.599278 0
    outer loop
      vertex -59.365 -8.16256 0
      vertex -59.023 -8.61944 0
      vertex -59.365 -8.16256 15
    endloop
  endfacet
  facet normal -0.800541 -0.599278 0
    outer loop
      vertex -59.365 -8.16256 15
      vertex -59.023 -8.61944 0
      vertex -59.023 -8.61944 15
    endloop
  endfacet
  facet normal -0.707107 -0.707107 0
    outer loop
      vertex -59.023 -8.61944 15
      vertex -59.023 -8.61944 0
      vertex -58.6194 -9.023 0
    endloop
  endfacet
  facet normal -0.707107 -0.707107 0
    outer loop
      vertex -58.6194 -9.023 15
      vertex -59.023 -8.61944 15
      vertex -58.6194 -9.023 0
    endloop
  endfacet
  facet normal -0.599278 -0.800541 0
    outer loop
      vertex -58.6194 -9.023 15
      vertex -58.6194 -9.023 0
      vertex -58.1626 -9.36501 0
    endloop
  endfacet
  facet normal -0.599278 -0.800541 0
    outer loop
      vertex -58.1626 -9.36501 15
      vertex -58.6194 -9.023 15
      vertex -58.1626 -9.36501 0
    endloop
  endfacet
  facet normal -0.479249 -0.877679 0
    outer loop
      vertex -58.1626 -9.36501 15
      vertex -58.1626 -9.36501 0
      vertex -57.6617 -9.63853 0
    endloop
  endfacet
  facet normal -0.479249 -0.877679 0
    outer loop
      vertex -57.6617 -9.63853 15
      vertex -58.1626 -9.36501 15
      vertex -57.6617 -9.63853 0
    endloop
  endfacet
  facet normal -0.349464 -0.93695 0
    outer loop
      vertex -57.6617 -9.63853 15
      vertex -57.6617 -9.63853 0
      vertex -57.1269 -9.83797 0
    endloop
  endfacet
  facet normal -0.349464 -0.93695 0
    outer loop
      vertex -57.1269 -9.83797 15
      vertex -57.6617 -9.63853 15
      vertex -57.1269 -9.83797 0
    endloop
  endfacet
  facet normal -0.212565 -0.977147 0
    outer loop
      vertex -57.1269 -9.83797 15
      vertex -57.1269 -9.83797 0
      vertex -56.5693 -9.95929 0
    endloop
  endfacet
  facet normal -0.212565 -0.977147 0
    outer loop
      vertex -56.5693 -9.95929 15
      vertex -57.1269 -9.83797 15
      vertex -56.5693 -9.95929 0
    endloop
  endfacet
  facet normal -0.0713388 -0.997452 0
    outer loop
      vertex -56.5693 -9.95929 15
      vertex -56.5693 -9.95929 0
      vertex -56 -10 0
    endloop
  endfacet
  facet normal -0.0713388 -0.997452 0
    outer loop
      vertex -56 -10 15
      vertex -56.5693 -9.95929 15
      vertex -56 -10 0
    endloop
  endfacet
  facet normal 0 -1 0
    outer loop
      vertex -56 -10 15
      vertex -56 -10 0
      vertex 56 -10 0
    endloop
  endfacet
  facet normal 0 -1 0
    outer loop
      vertex 56 -10 15
      vertex -56 -10 15
      vertex 56 -10 0
    endloop
  endfacet
  facet normal 0.0713388 -0.997452 0
    outer loop
      vertex 56 -10 15
      vertex 56 -10 0
      vertex 56.5693 -9.95929 0
    endloop
  endfacet
  facet normal 0.0713388 -0.997452 0
    outer loop
      vertex 56.5693 -9.95929 15
      vertex 56 -10 15
      vertex 56.5693 -9.95929 0
    endloop
  endfacet
  facet normal 0.212565 -0.977147 0
    outer loop
      vertex 56.5693 -9.95929 15
      vertex 56.5693 -9.95929 0
      vertex 57.1269 -9.83797 0
    endloop
  endfacet
  facet normal 0.212565 -0.977147 0
    outer loop
      vertex 57.1269 -9.83797 15
      vertex 56.5693 -9.95929 15
      vertex 57.1269 -9.83797 0
    endloop
  endfacet
  facet normal 0.349464 -0.93695 0
    outer loop
      vertex 57.1269 -9.83797 15
      vertex 57.1269 -9.83797 0
      vertex 57.6617 -9.63853 0
    endloop
  endfacet
  facet normal 0.349464 -0.93695 0
    outer loop
      vertex 57.6617 -9.63853 15
      vertex 57.1269 -9.83797 15
      vertex 57.6617 -9.63853 0
    endloop
  endfacet
  facet normal 0.479249 -0.877679 0
    outer loop
      vertex 57.6617 -9.63853 15
      vertex 57.6617 -9.63853 0
      vertex 58.1626 -9.36501 0
    endloop
  endfacet
  facet normal 0.479249 -0.877679 0
    outer loop
      vertex 58.1626 -9.36501 15
      vertex 57.6617 -9.63853 15
      vertex 58.1626 -9.36501 0
    endloop
  endfacet
  facet normal 0.599278 -0.800541 0
    outer loop
      vertex 58.1626 -9.36501 15
      vertex 58.1626 -9.36501 0
      vertex 58.6194 -9.023 0
    endloop
  endfacet
  facet normal 0.599278 -0.800541 0
    outer loop
      vertex 58.6194 -9.023 15
      vertex 58.1626 -9.36501 15
      vertex 58.6194 -9.023 0
    endloop
  endfacet
  facet normal 0.707107 -0.707107 0
    outer loop
      vertex 58.6194 -9.023 15
      vertex 58.6194 -9.023 0
      vertex 59.023 -8.61944 0
    endloop
  endfacet
  facet normal 0.707107 -0.707107 0
    outer loop
      vertex 59.023 -8.61944 15
      vertex 58.6194 -9.023 15
      vertex 59.023 -8.61944 0
    endloop
  endfacet
  facet normal 0.800541 -0.599278 0
    outer loop
      vertex 59.023 -8.61944 15
      vertex 59.023 -8.61944 0
      vertex 59.365 -8.16256 0
    endloop
  endfacet
  facet normal 0.800541 -0.599278 0
    outer loop
      vertex 59.365 -8.16256 15
      vertex 59.023 -8.61944 15
      vertex 59.365 -8.16256 0
    endloop
  endfacet
  facet normal 0.877679 -0.479249 0
    outer loop
      vertex 59.365 -8.16256 15
      vertex 59.365 -8.16256 0
      vertex 59.6385 -7.66166 0
    endloop
  endfacet
  facet normal 0.877679 -0.479249 0
    outer loop
      vertex 59.6385 -7.66166 15
      vertex 59.365 -8.16256 15
      vertex 59.6385 -7.66166 0
    endloop
  endfacet
  facet normal 0.93695 -0.349464 0
    outer loop
      vertex 59.6385 -7.66166 15
      vertex 59.6385 -7.66166 0
      vertex 59.838 -7.12693 0
    endloop
  endfacet
  facet normal 0.93695 -0.349464 0
    outer loop
      vertex 59.838 -7.12693 15
      vertex 59.6385 -7.66166 15
      vertex 59.838 -7.12693 0
    endloop
  endfacet
  facet normal 0.977147 -0.212565 0
    outer loop
      vertex 59.838 -7.12693 15
      vertex 59.838 -7.12693 0
      vertex 59.9593 -6.56926 0
    endloop
  endfacet
  facet normal 0.977147 -0.212565 0
    outer loop
      vertex 59.9593 -6.56926 15
      vertex 59.838 -7.12693 15
      vertex 59.9593 -6.56926 0
    endloop
  endfacet
  facet normal 0.997452 -0.0713388 0
    outer loop
      vertex 59.9593 -6.56926 15
      vertex 59.9593 -6.56926 0
      vertex 60 -6 0
    endloop
  endfacet
  facet normal 0.997452 -0.0713388 0
    outer loop
      vertex 60 -6 15
      vertex 59.9593 -6.56926 15
      vertex 60 -6 0
    endloop
  endfacet
  facet normal 1 0 0
    outer loop
      vertex 60 0 2.75
      vertex 60 -6 0
      vertex 60 6 0
    endloop
  endfacet
  facet normal 1 0 0
    outer loop
      vertex 60 4.63091 8.55697
      vertex 60 3.7137 4.53842
      vertex 60 6 0
    endloop
  endfacet
  facet normal 1 0 0
    outer loop
      vertex 60 -4.63091 8.55697
      vertex 60 -6 0
      vertex 60 -3.7137 4.53842
    endloop
  endfacet
  facet normal 1 0 0
    outer loop
      vertex 60 3.7137 4.53842
      vertex 60 0 2.75
      vertex 60 6 0
    endloop
  endfacet
  facet normal 1 0 0
    outer loop
      vertex 60 -6 15
      vertex 60 -6 0
      vertex 60 -4.63091 8.55697
    endloop
  endfacet
  facet normal 1 0 0
    outer loop
      vertex 60 6 15
      vertex 60 -6 15
      vertex 60 -2.06095 11.7796
    endloop
  endfacet
  facet normal 1 0 0
    outer loop
      vertex 60 6 15
      vertex 60 -2.06095 11.7796
      vertex 60 2.06095 11.7796
    endloop
  endfacet
  facet normal 1 0 0
    outer loop
      vertex 60 6 15
      vertex 60 4.63091 8.55697
      vertex 60 6 0
    endloop
  endfacet
  facet normal 1 0 0
    outer loop
      vertex 60 6 15
      vertex 60 2.06095 11.7796
      vertex 60 4.63091 8.55697
    endloop
  endfacet
  facet normal 1 0 0
    outer loop
      vertex 60 -3.7137 4.53842
      vertex 60 -6 0
      vertex 60 0 2.75
    endloop
  endfacet
  facet normal 1 0 0
    outer loop
      vertex 60 -4.63091 8.55697
      vertex 60 -2.06095 11.7796
      vertex 60 -6 15
    endloop
  endfacet
  facet normal 0.997452 0.0713388 0
    outer loop
      vertex 60 6 0
      vertex 59.9593 6.56926 0
      vertex 59.9593 6.56926 15
    endloop
  endfacet
  facet normal 0.997452 0.0713388 0
    outer loop
      vertex 60 6 15
      vertex 60 6 0
      vertex 59.9593 6.56926 15
    endloop
  endfacet
  facet normal 0.977147 0.212565 0
    outer loop
      vertex 59.9593 6.56926 0
      vertex 59.838 7.12693 0
      vertex 59.838 7.12693 15
    endloop
  endfacet
  facet normal 0.977147 0.212565 0
    outer loop
      vertex 59.9593 6.56926 15
      vertex 59.9593 6.56926 0
      vertex 59.838 7.12693 15
    endloop
  endfacet
  facet normal 0.93695 0.349464 0
    outer loop
      vertex 59.838 7.12693 0
      vertex 59.6385 7.66166 0
      vertex 59.6385 7.66166 15
    endloop
  endfacet
  facet normal 0.93695 0.349464 0
    outer loop
      vertex 59.838 7.12693 15
      vertex 59.838 7.12693 0
      vertex 59.6385 7.66166 15
    endloop
  endfacet
  facet normal 0.877679 0.479249 0
    outer loop
      vertex 59.6385 7.66166 0
      vertex 59.365 8.16256 0
      vertex 59.365 8.16256 15
    endloop
  endfacet
  facet normal 0.877679 0.479249 0
    outer loop
      vertex 59.6385 7.66166 15
      vertex 59.6385 7.66166 0
      vertex 59.365 8.16256 15
    endloop
  endfacet
  facet normal 0.800541 0.599278 0
    outer loop
      vertex 59.365 8.16256 0
      vertex 59.023 8.61944 0
      vertex 59.023 8.61944 15
    endloop
  endfacet
  facet normal 0.800541 0.599278 0
    outer loop
      vertex 59.365 8.16256 15
      vertex 59.365 8.16256 0
      vertex 59.023 8.61944 15
    endloop
  endfacet
  facet normal 0.707107 0.707107 0
    outer loop
      vertex 58.6194 9.023 0
      vertex 58.6194 9.023 15
      vertex 59.023 8.61944 0
    endloop
  endfacet
  facet normal 0.707107 0.707107 0
    outer loop
      vertex 59.023 8.61944 0
      vertex 58.6194 9.023 15
      vertex 59.023 8.61944 15
    endloop
  endfacet
  facet normal 0.599278 0.800541 0
    outer loop
      vertex 58.1626 9.36501 0
      vertex 58.1626 9.36501 15
      vertex 58.6194 9.023 0
    endloop
  endfacet
  facet normal 0.599278 0.800541 0
    outer loop
      vertex 58.6194 9.023 0
      vertex 58.1626 9.36501 15
      vertex 58.6194 9.023 15
    endloop
  endfacet
  facet normal 0.479249 0.877679 0
    outer loop
      vertex 57.6617 9.63853 0
      vertex 57.6617 9.63853 15
      vertex 58.1626 9.36501 0
    endloop
  endfacet
  facet normal 0.479249 0.877679 0
    outer loop
      vertex 58.1626 9.36501 0
      vertex 57.6617 9.63853 15
      vertex 58.1626 9.36501 15
    endloop
  endfacet
  facet normal 0.349464 0.93695 0
    outer loop
      vertex 57.1269 9.83797 0
      vertex 57.1269 9.83797 15
      vertex 57.6617 9.63853 0
    endloop
  endfacet
  facet normal 0.349464 0.93695 0
    outer loop
      vertex 57.6617 9.63853 0
      vertex 57.1269 9.83797 15
      vertex 57.6617 9.63853 15
    endloop
  endfacet
  facet normal 0.212565 0.977147 0
    outer loop
      vertex 56.5693 9.95929 0
      vertex 56.5693 9.95929 15
      vertex 57.1269 9.83797 0
    endloop
  endfacet
  facet normal 0.212565 0.977147 0
    outer loop
      vertex 57.1269 9.83797 0
      vertex 56.5693 9.95929 15
      vertex 57.1269 9.83797 15
    endloop
  endfacet
  facet normal 0.0713388 0.997452 0
    outer loop
      vertex 56 10 0
      vertex 56 10 15
      vertex 56.5693 9.95929 0
    endloop
  endfacet
  facet normal 0.0713388 0.997452 0
    outer loop
      vertex 56.5693 9.95929 0
      vertex 56 10 15
      vertex 56.5693 9.95929 15
    endloop
  endfacet
  facet normal 0 1 0
    outer loop
      vertex -56 10 0
      vertex -56 10 15
      vertex 56 10 0
    endloop
  endfacet
  facet normal 0 1 0
    outer loop
      vertex 56 10 0
      vertex -56 10 15
      vertex 56 10 15
    endloop
  endfacet
  facet normal -0.0713388 0.997452 0
    outer loop
      vertex -56.5693 9.95929 0
      vertex -56.5693 9.95929 15
      vertex -56 10 0
    endloop
  endfacet
  facet normal -0.0713388 0.997452 0
    outer loop
      vertex -56 10 0
      vertex -56.5693 9.95929 15
      vertex -56 10 15
    endloop
  endfacet
  facet normal -0.212565 0.977147 0
    outer loop
      vertex -57.1269 9.83797 0
      vertex -57.1269 9.83797 15
      vertex -56.5693 9.95929 0
    endloop
  endfacet
  facet normal -0.212565 0.977147 0
    outer loop
      vertex -56.5693 9.95929 0
      vertex -57.1269 9.83797 15
      vertex -56.5693 9.95929 15
    endloop
  endfacet
  facet normal -0.349464 0.93695 0
    outer loop
      vertex -57.6617 9.63853 0
      vertex -57.6617 9.63853 15
      vertex -57.1269 9.83797 0
    endloop
  endfacet
  facet normal -0.349464 0.93695 0
    outer loop
      vertex -57.1269 9.83797 0
      vertex -57.6617 9.63853 15
      vertex -57.1269 9.83797 15
    endloop
  endfacet
  facet normal -0.479249 0.877679 0
    outer loop
      vertex -58.1626 9.36501 0
      vertex -58.1626 9.36501 15
      vertex -57.6617 9.63853 0
    endloop
  endfacet
  facet normal -0.479249 0.877679 0
    outer loop
      vertex -57.6617 9.63853 0
      vertex -58.1626 9.36501 15
      vertex -57.6617 9.63853 15
    endloop
  endfacet
  facet normal -0.599278 0.800541 0
    outer loop
      vertex -58.6194 9.023 0
      vertex -58.6194 9.023 15
      vertex -58.1626 9.36501 0
    endloop
  endfacet
  facet normal -0.599278 0.800541 0
    outer loop
      vertex -58.1626 9.36501 0
      vertex -58.6194 9.023 15
      vertex -58.1626 9.36501 15
    endloop
  endfacet
  facet normal -0.707107 0.707107 0
    outer loop
      vertex -59.023 8.61944 0
      vertex -59.023 8.61944 15
      vertex -58.6194 9.023 0
    endloop
  endfacet
  facet normal -0.707107 0.707107 0
    outer loop
      vertex -58.6194 9.023 0
      vertex -59.023 8.61944 15
      vertex -58.6194 9.023 15
    endloop
  endfacet
  facet normal -0.800541 0.599278 0
    outer loop
      vertex -59.365 8.16256 0
      vertex -59.365 8.16256 15
      vertex -59.023 8.61944 0
    endloop
  endfacet
  facet normal -0.800541 0.599278 0
    outer loop
      vertex -59.023 8.61944 0
      vertex -59.365 8.16256 15
      vertex -59.023 8.61944 15
    endloop
  endfacet
  facet normal -0.877679 0.479249 0
    outer loop
      vertex -59.6385 7.66166 0
      vertex -59.6385 7.66166 15
      vertex -59.365 8.16256 0
    endloop
  endfacet
  facet normal -0.877679 0.479249 0
    outer loop
      vertex -59.365 8.16256 0
      vertex -59.6385 7.66166 15
      vertex -59.365 8.16256 15
    endloop
  endfacet
  facet normal -0.93695 0.349464 0
    outer loop
      vertex -59.838 7.12693 0
      vertex -59.838 7.12693 15
      vertex -59.6385 7.66166 0
    endloop
  endfacet
  facet normal -0.93695 0.349464 0
    outer loop
      vertex -59.6385 7.66166 0
      vertex -59.838 7.12693 15
      vertex -59.6385 7.66166 15
    endloop
  endfacet
  facet normal -0.977147 0.212565 0
    outer loop
      vertex -59.9593 6.56926 0
      vertex -59.9593 6.56926 15
      vertex -59.838 7.12693 0
    endloop
  endfacet
  facet normal -0.977147 0.212565 0
    outer loop
      vertex -59.838 7.12693 0
      vertex -59.9593 6.56926 15
      vertex -59.838 7.12693 15
    endloop
  endfacet
  facet normal -0.997452 0.0713388 0
    outer loop
      vertex -60 6 0
      vertex -60 6 15
      vertex -59.9593 6.56926 0
    endloop
  endfacet
  facet normal -0.997452 0.0713388 0
    outer loop
      vertex -59.9593 6.56926 0
      vertex -60 6 15
      vertex -59.9593 6.56926 15
    endloop
  endfacet
  facet normal -1 0 0
    outer loop
      vertex -60 4.75 0
      vertex -60 4.75 15
      vertex -60 6 0
    endloop
  endfacet
  facet normal -1 0 0
    outer loop
      vertex -60 6 0
      vertex -60 4.75 15
      vertex -60 6 15
    endloop
  endfacet
  facet normal 0 -1 0
    outer loop
      vertex -49.5 4.75 0
      vertex -49.5 4.75 15
      vertex -60 4.75 15
    endloop
  endfacet
  facet normal 0 -1 0
    outer loop
      vertex -60 4.75 0
      vertex -49.5 4.75 0
      vertex -60 4.75 15
    endloop
  endfacet
  facet normal -0.0713399 -0.997452 0
    outer loop
      vertex -48.8596 4.7042 0
      vertex -48.8596 4.7042 15
      vertex -49.5 4.75 15
    endloop
  endfacet
  facet normal -0.0713399 -0.997452 0
    outer loop
      vertex -49.5 4.75 0
      vertex -48.8596 4.7042 0
      vertex -49.5 4.75 15
    endloop
  endfacet
  facet normal -0.212565 -0.977147 0
    outer loop
      vertex -48.2322 4.56772 0
      vertex -48.2322 4.56772 15
      vertex -48.8596 4.7042 15
    endloop
  endfacet
  facet normal -0.212565 -0.977147 0
    outer loop
      vertex -48.8596 4.7042 0
      vertex -48.2322 4.56772 0
      vertex -48.8596 4.7042 15
    endloop
  endfacet
  facet normal -0.349464 -0.93695 0
    outer loop
      vertex -47.6306 4.34334 0
      vertex -47.6306 4.34334 15
      vertex -48.2322 4.56772 15
    endloop
  endfacet
  facet normal -0.349464 -0.93695 0
    outer loop
      vertex -48.2322 4.56772 0
      vertex -47.6306 4.34334 0
      vertex -48.2322 4.56772 15
    endloop
  endfacet
  facet normal -0.479249 -0.877679 0
    outer loop
      vertex -47.0671 4.03564 0
      vertex -47.0671 4.03564 15
      vertex -47.6306 4.34334 15
    endloop
  endfacet
  facet normal -0.479249 -0.877679 0
    outer loop
      vertex -47.6306 4.34334 0
      vertex -47.0671 4.03564 0
      vertex -47.6306 4.34334 15
    endloop
  endfacet
  facet normal -0.599278 -0.800541 0
    outer loop
      vertex -46.5531 3.65087 0
      vertex -46.5531 3.65087 15
      vertex -47.0671 4.03564 15
    endloop
  endfacet
  facet normal -0.599278 -0.800541 0
    outer loop
      vertex -47.0671 4.03564 0
      vertex -46.5531 3.65087 0
      vertex -47.0671 4.03564 15
    endloop
  endfacet
  facet normal -0.707107 -0.707107 0
    outer loop
      vertex -46.0991 3.19687 0
      vertex -46.0991 3.19687 15
      vertex -46.5531 3.65087 15
    endloop
  endfacet
  facet normal -0.707107 -0.707107 0
    outer loop
      vertex -46.5531 3.65087 0
      vertex -46.0991 3.19687 0
      vertex -46.5531 3.65087 15
    endloop
  endfacet
  facet normal -0.800541 -0.599278 0
    outer loop
      vertex -45.7144 2.68288 15
      vertex -46.0991 3.19687 15
      vertex -45.7144 2.68288 0
    endloop
  endfacet
  facet normal -0.800541 -0.599278 0
    outer loop
      vertex -45.7144 2.68288 0
      vertex -46.0991 3.19687 15
      vertex -46.0991 3.19687 0
    endloop
  endfacet
  facet normal -0.877679 -0.479249 0
    outer loop
      vertex -45.4067 2.11937 15
      vertex -45.7144 2.68288 15
      vertex -45.4067 2.11937 0
    endloop
  endfacet
  facet normal -0.877679 -0.479249 0
    outer loop
      vertex -45.4067 2.11937 0
      vertex -45.7144 2.68288 15
      vertex -45.7144 2.68288 0
    endloop
  endfacet
  facet normal -0.93695 -0.349464 0
    outer loop
      vertex -45.1823 1.5178 15
      vertex -45.4067 2.11937 15
      vertex -45.1823 1.5178 0
    endloop
  endfacet
  facet normal -0.93695 -0.349464 0
    outer loop
      vertex -45.1823 1.5178 0
      vertex -45.4067 2.11937 15
      vertex -45.4067 2.11937 0
    endloop
  endfacet
  facet normal -0.977147 -0.212565 0
    outer loop
      vertex -45.0458 0.890417 15
      vertex -45.1823 1.5178 15
      vertex -45.0458 0.890417 0
    endloop
  endfacet
  facet normal -0.977147 -0.212565 0
    outer loop
      vertex -45.0458 0.890417 0
      vertex -45.1823 1.5178 15
      vertex -45.1823 1.5178 0
    endloop
  endfacet
  facet normal -0.997452 -0.0713399 0
    outer loop
      vertex -45 0.25 15
      vertex -45.0458 0.890417 15
      vertex -45 0.25 0
    endloop
  endfacet
  facet normal -0.997452 -0.0713399 0
    outer loop
      vertex -45 0.25 0
      vertex -45.0458 0.890417 15
      vertex -45.0458 0.890417 0
    endloop
  endfacet
  facet normal -1 0 0
    outer loop
      vertex -45 0.25 15
      vertex -45 0.25 0
      vertex -45 -0.25 15
    endloop
  endfacet
  facet normal -1 0 0
    outer loop
      vertex -45 -0.25 15
      vertex -45 0.25 0
      vertex -45 -0.25 0
    endloop
  endfacet
  facet normal -0.997452 0.0713399 0
    outer loop
      vertex -45 -0.25 15
      vertex -45 -0.25 0
      vertex -45.0458 -0.890417 15
    endloop
  endfacet
  facet normal -0.997452 0.0713399 0
    outer loop
      vertex -45.0458 -0.890417 15
      vertex -45 -0.25 0
      vertex -45.0458 -0.890417 0
    endloop
  endfacet
  facet normal -0.977147 0.212565 0
    outer loop
      vertex -45.0458 -0.890417 15
      vertex -45.0458 -0.890417 0
      vertex -45.1823 -1.5178 15
    endloop
  endfacet
  facet normal -0.977147 0.212565 0
    outer loop
      vertex -45.1823 -1.5178 15
      vertex -45.0458 -0.890417 0
      vertex -45.1823 -1.5178 0
    endloop
  endfacet
  facet normal -0.93695 0.349464 0
    outer loop
      vertex -45.1823 -1.5178 15
      vertex -45.1823 -1.5178 0
      vertex -45.4067 -2.11937 15
    endloop
  endfacet
  facet normal -0.93695 0.349464 0
    outer loop
      vertex -45.4067 -2.11937 15
      vertex -45.1823 -1.5178 0
      vertex -45.4067 -2.11937 0
    endloop
  endfacet
  facet normal -0.877679 0.479249 0
    outer loop
      vertex -45.4067 -2.11937 15
      vertex -45.4067 -2.11937 0
      vertex -45.7144 -2.68288 15
    endloop
  endfacet
  facet normal -0.877679 0.479249 0
    outer loop
      vertex -45.7144 -2.68288 15
      vertex -45.4067 -2.11937 0
      vertex -45.7144 -2.68288 0
    endloop
  endfacet
  facet normal -0.800541 0.599278 0
    outer loop
      vertex -45.7144 -2.68288 15
      vertex -45.7144 -2.68288 0
      vertex -46.0991 -3.19687 15
    endloop
  endfacet
  facet normal -0.800541 0.599278 0
    outer loop
      vertex -46.0991 -3.19687 15
      vertex -45.7144 -2.68288 0
      vertex -46.0991 -3.19687 0
    endloop
  endfacet
  facet normal -0.707107 0.707107 0
    outer loop
      vertex -46.0991 -3.19687 15
      vertex -46.0991 -3.19687 0
      vertex -46.5531 -3.65087 15
    endloop
  endfacet
  facet normal -0.707107 0.707107 0
    outer loop
      vertex -46.5531 -3.65087 15
      vertex -46.0991 -3.19687 0
      vertex -46.5531 -3.65087 0
    endloop
  endfacet
  facet normal -0.599278 0.800541 0
    outer loop
      vertex -46.5531 -3.65087 15
      vertex -46.5531 -3.65087 0
      vertex -47.0671 -4.03564 15
    endloop
  endfacet
  facet normal -0.599278 0.800541 0
    outer loop
      vertex -47.0671 -4.03564 15
      vertex -46.5531 -3.65087 0
      vertex -47.0671 -4.03564 0
    endloop
  endfacet
  facet normal -0.479249 0.877679 0
    outer loop
      vertex -47.0671 -4.03564 15
      vertex -47.0671 -4.03564 0
      vertex -47.6306 -4.34334 15
    endloop
  endfacet
  facet normal -0.479249 0.877679 0
    outer loop
      vertex -47.6306 -4.34334 15
      vertex -47.0671 -4.03564 0
      vertex -47.6306 -4.34334 0
    endloop
  endfacet
  facet normal -0.349464 0.93695 0
    outer loop
      vertex -47.6306 -4.34334 15
      vertex -47.6306 -4.34334 0
      vertex -48.2322 -4.56772 15
    endloop
  endfacet
  facet normal -0.349464 0.93695 0
    outer loop
      vertex -48.2322 -4.56772 15
      vertex -47.6306 -4.34334 0
      vertex -48.2322 -4.56772 0
    endloop
  endfacet
  facet normal -0.212565 0.977147 0
    outer loop
      vertex -48.2322 -4.56772 15
      vertex -48.2322 -4.56772 0
      vertex -48.8596 -4.7042 15
    endloop
  endfacet
  facet normal -0.212565 0.977147 0
    outer loop
      vertex -48.8596 -4.7042 15
      vertex -48.2322 -4.56772 0
      vertex -48.8596 -4.7042 0
    endloop
  endfacet
  facet normal -0.0713399 0.997452 0
    outer loop
      vertex -48.8596 -4.7042 15
      vertex -48.8596 -4.7042 0
      vertex -49.5 -4.75 15
    endloop
  endfacet
  facet normal -0.0713399 0.997452 0
    outer loop
      vertex -49.5 -4.75 15
      vertex -48.8596 -4.7042 0
      vertex -49.5 -4.75 0
    endloop
  endfacet
  facet normal -4.94096e-17 0.974928 0.222521
    outer loop
      vertex 60 -3.7137 4.53842
      vertex 25 -3.7137 4.53842
      vertex 60 -4.63091 8.55697
    endloop
  endfacet
  facet normal -4.94096e-17 0.974928 0.222521
    outer loop
      vertex 60 -4.63091 8.55697
      vertex 25 -3.7137 4.53842
      vertex 25 -4.63091 8.55697
    endloop
  endfacet
  facet normal -2.00055e-16 0.433884 0.900969
    outer loop
      vertex 60 -3.7137 4.53842
      vertex 60 0 2.75
      vertex 25 0 2.75
    endloop
  endfacet
  facet normal -2.00055e-16 0.433884 0.900969
    outer loop
      vertex 25 -3.7137 4.53842
      vertex 60 -3.7137 4.53842
      vertex 25 0 2.75
    endloop
  endfacet
  facet normal -2.00055e-16 -0.433884 0.900969
    outer loop
      vertex 25 0 2.75
      vertex 60 0 2.75
      vertex 60 3.7137 4.53842
    endloop
  endfacet
  facet normal -2.00055e-16 -0.433884 0.900969
    outer loop
      vertex 25 3.7137 4.53842
      vertex 25 0 2.75
      vertex 60 3.7137 4.53842
    endloop
  endfacet
  facet normal -4.94096e-17 -0.974928 0.222521
    outer loop
      vertex 25 3.7137 4.53842
      vertex 60 3.7137 4.53842
      vertex 60 4.63091 8.55697
    endloop
  endfacet
  facet normal -4.94096e-17 -0.974928 0.222521
    outer loop
      vertex 25 4.63091 8.55697
      vertex 25 3.7137 4.53842
      vertex 60 4.63091 8.55697
    endloop
  endfacet
  facet normal 1.38443e-16 -0.781831 -0.62349
    outer loop
      vertex 25 4.63091 8.55697
      vertex 60 4.63091 8.55697
      vertex 60 2.06095 11.7796
    endloop
  endfacet
  facet normal 1.38443e-16 -0.781831 -0.62349
    outer loop
      vertex 25 2.06095 11.7796
      vertex 25 4.63091 8.55697
      vertex 60 2.06095 11.7796
    endloop
  endfacet
  facet normal 2.22045e-16 0 -1
    outer loop
      vertex 60 2.06095 11.7796
      vertex 60 -2.06095 11.7796
      vertex 25 2.06095 11.7796
    endloop
  endfacet
  facet normal 2.22045e-16 0 -1
    outer loop
      vertex 25 2.06095 11.7796
      vertex 60 -2.06095 11.7796
      vertex 25 -2.06095 11.7796
    endloop
  endfacet
  facet normal 1.38443e-16 0.781831 -0.62349
    outer loop
      vertex 60 -4.63091 8.55697
      vertex 25 -4.63091 8.55697
      vertex 60 -2.06095 11.7796
    endloop
  endfacet
  facet normal 1.38443e-16 0.781831 -0.62349
    outer loop
      vertex 60 -2.06095 11.7796
      vertex 25 -4.63091 8.55697
      vertex 25 -2.06095 11.7796
    endloop
  endfacet
  facet normal 1 0 2.22045e-16
    outer loop
      vertex 25 -4.63091 8.55697
      vertex 25 -3.7137 4.53842
      vertex 25 0 2.75
    endloop
  endfacet
  facet normal 1 0 2.22045e-16
    outer loop
      vertex 25 4.63091 8.55697
      vertex 25 -4.63091 8.55697
      vertex 25 3.7137 4.53842
    endloop
  endfacet
  facet normal 1 0 2.22045e-16
    outer loop
      vertex 25 3.7137 4.53842
      vertex 25 -4.63091 8.55697
      vertex 25 0 2.75
    endloop
  endfacet
  facet normal 1 0 2.22045e-16
    outer loop
      vertex 25 2.06095 11.7796
      vertex 25 -4.63091 8.55697
      vertex 25 4.63091 8.55697
    endloop
  endfacet
  facet normal 1 0 2.22045e-16
    outer loop
      vertex 25 -2.06095 11.7796
      vertex 25 -4.63091 8.55697
      vertex 25 2.06095 11.7796
    endloop
  endfacet
endsolid OpenSCAD_Model
