solid Default
  facet normal 0.000000e+00 0.000000e+00 1.000000e+00
    outer loop
      vertex -5.631599e+00 -1.387458e+00 0.000000e+00
      vertex -5.570839e+00 1.614227e+00 0.000000e+00
      vertex -5.798813e+00 1.173844e-01 0.000000e+00
    endloop
  endfacet
  facet normal 0.000000e+00 0.000000e+00 1.000000e+00
    outer loop
      vertex -5.570839e+00 1.614227e+00 0.000000e+00
      vertex -5.631599e+00 -1.387458e+00 0.000000e+00
      vertex -5.080612e+00 -2.797748e+00 0.000000e+00
    endloop
  endfacet
  facet normal 0.000000e+00 0.000000e+00 1.000000e+00
    outer loop
      vertex -5.570839e+00 1.614227e+00 0.000000e+00
      vertex -5.080612e+00 -2.797748e+00 0.000000e+00
      vertex -4.963226e+00 3.001064e+00 0.000000e+00
    endloop
  endfacet
  facet normal 0.000000e+00 0.000000e+00 1.000000e+00
    outer loop
      vertex -4.963226e+00 3.001064e+00 0.000000e+00
      vertex -5.080612e+00 -2.797748e+00 0.000000e+00
      vertex -4.183380e+00 -4.017376e+00 0.000000e+00
    endloop
  endfacet
  facet normal 0.000000e+00 0.000000e+00 1.000000e+00
    outer loop
      vertex -4.963226e+00 3.001064e+00 0.000000e+00
      vertex -4.183380e+00 -4.017376e+00 0.000000e+00
      vertex -4.017372e+00 4.183383e+00 0.000000e+00
    endloop
  endfacet
  facet normal 0.000000e+00 0.000000e+00 1.000000e+00
    outer loop
      vertex -4.017372e+00 4.183383e+00 0.000000e+00
      vertex -4.183380e+00 -4.017376e+00 0.000000e+00
      vertex -3.001060e+00 -4.963227e+00 0.000000e+00
    endloop
  endfacet
  facet normal 0.000000e+00 0.000000e+00 1.000000e+00
    outer loop
      vertex -4.017372e+00 4.183383e+00 0.000000e+00
      vertex -3.001060e+00 -4.963227e+00 0.000000e+00
      vertex -2.797745e+00 5.080610e+00 0.000000e+00
    endloop
  endfacet
  facet normal 0.000000e+00 0.000000e+00 1.000000e+00
    outer loop
      vertex -2.797745e+00 5.080610e+00 0.000000e+00
      vertex -3.001060e+00 -4.963227e+00 0.000000e+00
      vertex -1.614227e+00 -5.570841e+00 0.000000e+00
    endloop
  endfacet
  facet normal 0.000000e+00 0.000000e+00 1.000000e+00
    outer loop
      vertex -2.797745e+00 5.080610e+00 0.000000e+00
      vertex -1.614227e+00 -5.570841e+00 0.000000e+00
      vertex -1.387459e+00 5.631603e+00 0.000000e+00
    endloop
  endfacet
  facet normal 0.000000e+00 0.000000e+00 1.000000e+00
    outer loop
      vertex -1.387459e+00 5.631603e+00 0.000000e+00
      vertex -1.614227e+00 -5.570841e+00 0.000000e+00
      vertex -1.173859e-01 -5.798812e+00 0.000000e+00
    endloop
  endfacet
  facet normal 0.000000e+00 0.000000e+00 1.000000e+00
    outer loop
      vertex -1.387459e+00 5.631603e+00 0.000000e+00
      vertex -1.173859e-01 -5.798812e+00 0.000000e+00
      vertex 1.173859e-01 5.798812e+00 0.000000e+00
    endloop
  endfacet
  facet normal 0.000000e+00 0.000000e+00 1.000000e+00
    outer loop
      vertex 1.173859e-01 5.798812e+00 0.000000e+00
      vertex -1.173859e-01 -5.798812e+00 0.000000e+00
      vertex 1.387459e+00 -5.631604e+00 0.000000e+00
    endloop
  endfacet
  facet normal 0.000000e+00 0.000000e+00 1.000000e+00
    outer loop
      vertex 1.173859e-01 5.798812e+00 0.000000e+00
      vertex 1.387459e+00 -5.631604e+00 0.000000e+00
      vertex 1.614227e+00 5.570840e+00 0.000000e+00
    endloop
  endfacet
  facet normal 0.000000e+00 0.000000e+00 1.000000e+00
    outer loop
      vertex 1.614227e+00 5.570840e+00 0.000000e+00
      vertex 1.387459e+00 -5.631604e+00 0.000000e+00
      vertex 2.797752e+00 -5.080612e+00 0.000000e+00
    endloop
  endfacet
  facet normal 0.000000e+00 0.000000e+00 1.000000e+00
    outer loop
      vertex 1.614227e+00 5.570840e+00 0.000000e+00
      vertex 2.797752e+00 -5.080612e+00 0.000000e+00
      vertex 3.001068e+00 4.963226e+00 0.000000e+00
    endloop
  endfacet
  facet normal 0.000000e+00 0.000000e+00 1.000000e+00
    outer loop
      vertex 3.001068e+00 4.963226e+00 0.000000e+00
      vertex 2.797752e+00 -5.080612e+00 0.000000e+00
      vertex 4.017380e+00 -4.183383e+00 0.000000e+00
    endloop
  endfacet
  facet normal 0.000000e+00 0.000000e+00 1.000000e+00
    outer loop
      vertex 3.001068e+00 4.963226e+00 0.000000e+00
      vertex 4.017380e+00 -4.183383e+00 0.000000e+00
      vertex 4.183380e+00 4.017375e+00 0.000000e+00
    endloop
  endfacet
  facet normal 0.000000e+00 0.000000e+00 1.000000e+00
    outer loop
      vertex 4.183380e+00 4.017375e+00 0.000000e+00
      vertex 4.017380e+00 -4.183383e+00 0.000000e+00
      vertex 4.963226e+00 -3.001065e+00 0.000000e+00
    endloop
  endfacet
  facet normal 0.000000e+00 0.000000e+00 1.000000e+00
    outer loop
      vertex 4.183380e+00 4.017375e+00 0.000000e+00
      vertex 4.963226e+00 -3.001065e+00 0.000000e+00
      vertex 5.080612e+00 2.797748e+00 0.000000e+00
    endloop
  endfacet
  facet normal 0.000000e+00 0.000000e+00 1.000000e+00
    outer loop
      vertex 5.080612e+00 2.797748e+00 0.000000e+00
      vertex 4.963226e+00 -3.001065e+00 0.000000e+00
      vertex 5.570839e+00 -1.614229e+00 0.000000e+00
    endloop
  endfacet
  facet normal 0.000000e+00 0.000000e+00 1.000000e+00
    outer loop
      vertex 5.080612e+00 2.797748e+00 0.000000e+00
      vertex 5.570839e+00 -1.614229e+00 0.000000e+00
      vertex 5.631607e+00 1.387458e+00 0.000000e+00
    endloop
  endfacet
  facet normal 0.000000e+00 0.000000e+00 1.000000e+00
    outer loop
      vertex 5.631607e+00 1.387458e+00 0.000000e+00
      vertex 5.570839e+00 -1.614229e+00 0.000000e+00
      vertex 5.798813e+00 -1.173854e-01 0.000000e+00
    endloop
  endfacet
  facet normal 7.658691e-01 1.077140e-02 -6.429062e-01
    outer loop
      vertex -4.965912e+00 5.828528e-01 6.000000e+00
      vertex -4.947556e+00 -7.222800e-01 6.000000e+00
      vertex -5.798813e+00 1.173844e-01 5.000000e+00
    endloop
  endfacet
  facet normal 7.938393e-01 8.820623e-02 -6.016967e-01
    outer loop
      vertex -5.798813e+00 1.173844e-01 5.000000e+00
      vertex -4.947556e+00 -7.222800e-01 6.000000e+00
      vertex -5.631599e+00 -1.387458e+00 5.000000e+00
    endloop
  endfacet
  facet normal 7.369850e-01 2.086259e-01 -6.429062e-01
    outer loop
      vertex -4.947556e+00 -7.222800e-01 6.000000e+00
      vertex -4.592033e+00 -1.978190e+00 6.000000e+00
      vertex -5.631599e+00 -1.387458e+00 5.000000e+00
    endloop
  endfacet
  facet normal 7.439604e-01 2.906614e-01 -6.016967e-01
    outer loop
      vertex -5.631599e+00 -1.387458e+00 5.000000e+00
      vertex -4.592033e+00 -1.978190e+00 6.000000e+00
      vertex -5.080612e+00 -2.797748e+00 5.000000e+00
    endloop
  endfacet
  facet normal 6.578764e-01 3.922629e-01 -6.429062e-01
    outer loop
      vertex -4.592033e+00 -1.978190e+00 6.000000e+00
      vertex -3.923569e+00 -3.099290e+00 6.000000e+00
      vertex -5.080612e+00 -2.797748e+00 5.000000e+00
    endloop
  endfacet
  facet normal 6.433818e-01 4.733085e-01 -6.016967e-01
    outer loop
      vertex -5.080612e+00 -2.797748e+00 5.000000e+00
      vertex -3.923569e+00 -3.099290e+00 6.000000e+00
      vertex -4.183380e+00 -4.017376e+00 5.000000e+00
    endloop
  endfacet
  facet normal 5.339348e-01 5.491678e-01 -6.429062e-01
    outer loop
      vertex -2.987724e+00 -4.009180e+00 6.000000e+00
      vertex -4.183380e+00 -4.017376e+00 5.000000e+00
      vertex -3.923569e+00 -3.099290e+00 6.000000e+00
    endloop
  endfacet
  facet normal 4.989579e-01 6.237004e-01 -6.016967e-01
    outer loop
      vertex -2.987724e+00 -4.009180e+00 6.000000e+00
      vertex -3.001060e+00 -4.963227e+00 5.000000e+00
      vertex -4.183380e+00 -4.017376e+00 5.000000e+00
    endloop
  endfacet
  facet normal 3.736063e-01 6.686479e-01 -6.429062e-01
    outer loop
      vertex -1.848267e+00 -4.645850e+00 6.000000e+00
      vertex -3.001060e+00 -4.963227e+00 5.000000e+00
      vertex -2.987724e+00 -4.009180e+00 6.000000e+00
    endloop
  endfacet
  facet normal 3.205308e-01 7.315881e-01 -6.016967e-01
    outer loop
      vertex -1.848267e+00 -4.645850e+00 6.000000e+00
      vertex -1.614227e+00 -5.570841e+00 5.000000e+00
      vertex -3.001060e+00 -4.963227e+00 5.000000e+00
    endloop
  endfacet
  facet normal 1.878172e-01 7.425606e-01 -6.429062e-01
    outer loop
      vertex -5.828552e-01 -4.965912e+00 6.000000e+00
      vertex -1.614227e+00 -5.570841e+00 5.000000e+00
      vertex -1.848267e+00 -4.645850e+00 6.000000e+00
    endloop
  endfacet
  facet normal 1.202600e-01 7.896193e-01 -6.016967e-01
    outer loop
      vertex -5.828552e-01 -4.965912e+00 6.000000e+00
      vertex -1.173859e-01 -5.798812e+00 5.000000e+00
      vertex -1.614227e+00 -5.570841e+00 5.000000e+00
    endloop
  endfacet
  facet normal -1.077140e-02 7.658691e-01 -6.429062e-01
    outer loop
      vertex 7.222824e-01 -4.947557e+00 6.000000e+00
      vertex -1.173859e-01 -5.798812e+00 5.000000e+00
      vertex -5.828552e-01 -4.965912e+00 6.000000e+00
    endloop
  endfacet
  facet normal -8.820623e-02 7.938393e-01 -6.016967e-01
    outer loop
      vertex 7.222824e-01 -4.947557e+00 6.000000e+00
      vertex 1.387459e+00 -5.631604e+00 5.000000e+00
      vertex -1.173859e-01 -5.798812e+00 5.000000e+00
    endloop
  endfacet
  facet normal -2.086259e-01 7.369850e-01 -6.429062e-01
    outer loop
      vertex 1.978188e+00 -4.592033e+00 6.000000e+00
      vertex 1.387459e+00 -5.631604e+00 5.000000e+00
      vertex 7.222824e-01 -4.947557e+00 6.000000e+00
    endloop
  endfacet
  facet normal -2.906614e-01 7.439604e-01 -6.016967e-01
    outer loop
      vertex 1.978188e+00 -4.592033e+00 6.000000e+00
      vertex 2.797752e+00 -5.080612e+00 5.000000e+00
      vertex 1.387459e+00 -5.631604e+00 5.000000e+00
    endloop
  endfacet
  facet normal -3.922629e-01 6.578764e-01 -6.429062e-01
    outer loop
      vertex 3.099289e+00 -3.923570e+00 6.000000e+00
      vertex 2.797752e+00 -5.080612e+00 5.000000e+00
      vertex 1.978188e+00 -4.592033e+00 6.000000e+00
    endloop
  endfacet
  facet normal -4.733085e-01 6.433818e-01 -6.016967e-01
    outer loop
      vertex 3.099289e+00 -3.923570e+00 6.000000e+00
      vertex 4.017380e+00 -4.183383e+00 5.000000e+00
      vertex 2.797752e+00 -5.080612e+00 5.000000e+00
    endloop
  endfacet
  facet normal -5.491678e-01 5.339348e-01 -6.429062e-01
    outer loop
      vertex 4.017380e+00 -4.183383e+00 5.000000e+00
      vertex 3.099289e+00 -3.923570e+00 6.000000e+00
      vertex 4.009178e+00 -2.987722e+00 6.000000e+00
    endloop
  endfacet
  facet normal -6.237004e-01 4.989579e-01 -6.016967e-01
    outer loop
      vertex 4.009178e+00 -2.987722e+00 6.000000e+00
      vertex 4.963226e+00 -3.001065e+00 5.000000e+00
      vertex 4.017380e+00 -4.183383e+00 5.000000e+00
    endloop
  endfacet
  facet normal -6.686479e-01 3.736063e-01 -6.429062e-01
    outer loop
      vertex 4.645851e+00 -1.848266e+00 6.000000e+00
      vertex 4.963226e+00 -3.001065e+00 5.000000e+00
      vertex 4.009178e+00 -2.987722e+00 6.000000e+00
    endloop
  endfacet
  facet normal -7.315881e-01 3.205308e-01 -6.016967e-01
    outer loop
      vertex 5.570839e+00 -1.614229e+00 5.000000e+00
      vertex 4.963226e+00 -3.001065e+00 5.000000e+00
      vertex 4.645851e+00 -1.848266e+00 6.000000e+00
    endloop
  endfacet
  facet normal -7.425606e-01 1.878172e-01 -6.429062e-01
    outer loop
      vertex 4.965912e+00 -5.828538e-01 6.000000e+00
      vertex 5.570839e+00 -1.614229e+00 5.000000e+00
      vertex 4.645851e+00 -1.848266e+00 6.000000e+00
    endloop
  endfacet
  facet normal -7.896193e-01 1.202600e-01 -6.016967e-01
    outer loop
      vertex 5.798813e+00 -1.173854e-01 5.000000e+00
      vertex 5.570839e+00 -1.614229e+00 5.000000e+00
      vertex 4.965912e+00 -5.828538e-01 6.000000e+00
    endloop
  endfacet
  facet normal -7.658691e-01 -1.077140e-02 -6.429062e-01
    outer loop
      vertex 4.947556e+00 7.222791e-01 6.000000e+00
      vertex 5.798813e+00 -1.173854e-01 5.000000e+00
      vertex 4.965912e+00 -5.828538e-01 6.000000e+00
    endloop
  endfacet
  facet normal -7.938393e-01 -8.820623e-02 -6.016967e-01
    outer loop
      vertex 5.631607e+00 1.387458e+00 5.000000e+00
      vertex 5.798813e+00 -1.173854e-01 5.000000e+00
      vertex 4.947556e+00 7.222791e-01 6.000000e+00
    endloop
  endfacet
  facet normal -7.369850e-01 -2.086259e-01 -6.429062e-01
    outer loop
      vertex 4.592033e+00 1.978189e+00 6.000000e+00
      vertex 5.631607e+00 1.387458e+00 5.000000e+00
      vertex 4.947556e+00 7.222791e-01 6.000000e+00
    endloop
  endfacet
  facet normal -7.439604e-01 -2.906614e-01 -6.016967e-01
    outer loop
      vertex 5.080612e+00 2.797748e+00 5.000000e+00
      vertex 5.631607e+00 1.387458e+00 5.000000e+00
      vertex 4.592033e+00 1.978189e+00 6.000000e+00
    endloop
  endfacet
  facet normal -6.578764e-01 -3.922629e-01 -6.429062e-01
    outer loop
      vertex 3.923569e+00 3.099290e+00 6.000000e+00
      vertex 5.080612e+00 2.797748e+00 5.000000e+00
      vertex 4.592033e+00 1.978189e+00 6.000000e+00
    endloop
  endfacet
  facet normal -6.433818e-01 -4.733085e-01 -6.016967e-01
    outer loop
      vertex 4.183380e+00 4.017375e+00 5.000000e+00
      vertex 5.080612e+00 2.797748e+00 5.000000e+00
      vertex 3.923569e+00 3.099290e+00 6.000000e+00
    endloop
  endfacet
  facet normal -5.339348e-01 -5.491678e-01 -6.429062e-01
    outer loop
      vertex 4.183380e+00 4.017375e+00 5.000000e+00
      vertex 3.923569e+00 3.099290e+00 6.000000e+00
      vertex 2.987724e+00 4.009180e+00 6.000000e+00
    endloop
  endfacet
  facet normal -4.989579e-01 -6.237004e-01 -6.016967e-01
    outer loop
      vertex 2.987724e+00 4.009180e+00 6.000000e+00
      vertex 3.001068e+00 4.963226e+00 5.000000e+00
      vertex 4.183380e+00 4.017375e+00 5.000000e+00
    endloop
  endfacet
  facet normal -3.736063e-01 -6.686479e-01 -6.429062e-01
    outer loop
      vertex 1.848267e+00 4.645849e+00 6.000000e+00
      vertex 3.001068e+00 4.963226e+00 5.000000e+00
      vertex 2.987724e+00 4.009180e+00 6.000000e+00
    endloop
  endfacet
  facet normal -3.205308e-01 -7.315881e-01 -6.016967e-01
    outer loop
      vertex 1.848267e+00 4.645849e+00 6.000000e+00
      vertex 1.614227e+00 5.570840e+00 5.000000e+00
      vertex 3.001068e+00 4.963226e+00 5.000000e+00
    endloop
  endfacet
  facet normal -1.878172e-01 -7.425606e-01 -6.429062e-01
    outer loop
      vertex 5.828552e-01 4.965911e+00 6.000000e+00
      vertex 1.614227e+00 5.570840e+00 5.000000e+00
      vertex 1.848267e+00 4.645849e+00 6.000000e+00
    endloop
  endfacet
  facet normal -1.202600e-01 -7.896193e-01 -6.016967e-01
    outer loop
      vertex 5.828552e-01 4.965911e+00 6.000000e+00
      vertex 1.173859e-01 5.798812e+00 5.000000e+00
      vertex 1.614227e+00 5.570840e+00 5.000000e+00
    endloop
  endfacet
  facet normal 1.077140e-02 -7.658691e-01 -6.429062e-01
    outer loop
      vertex -7.222748e-01 4.947555e+00 6.000000e+00
      vertex 1.173859e-01 5.798812e+00 5.000000e+00
      vertex 5.828552e-01 4.965911e+00 6.000000e+00
    endloop
  endfacet
  facet normal 8.820623e-02 -7.938393e-01 -6.016967e-01
    outer loop
      vertex -7.222748e-01 4.947555e+00 6.000000e+00
      vertex -1.387459e+00 5.631603e+00 5.000000e+00
      vertex 1.173859e-01 5.798812e+00 5.000000e+00
    endloop
  endfacet
  facet normal 2.086259e-01 -7.369850e-01 -6.429062e-01
    outer loop
      vertex -1.978188e+00 4.592033e+00 6.000000e+00
      vertex -1.387459e+00 5.631603e+00 5.000000e+00
      vertex -7.222748e-01 4.947555e+00 6.000000e+00
    endloop
  endfacet
  facet normal 2.906614e-01 -7.439604e-01 -6.016967e-01
    outer loop
      vertex -1.978188e+00 4.592033e+00 6.000000e+00
      vertex -2.797745e+00 5.080610e+00 5.000000e+00
      vertex -1.387459e+00 5.631603e+00 5.000000e+00
    endloop
  endfacet
  facet normal 3.922629e-01 -6.578764e-01 -6.429062e-01
    outer loop
      vertex -3.099289e+00 3.923570e+00 6.000000e+00
      vertex -2.797745e+00 5.080610e+00 5.000000e+00
      vertex -1.978188e+00 4.592033e+00 6.000000e+00
    endloop
  endfacet
  facet normal 4.733085e-01 -6.433818e-01 -6.016967e-01
    outer loop
      vertex -3.099289e+00 3.923570e+00 6.000000e+00
      vertex -4.017372e+00 4.183383e+00 5.000000e+00
      vertex -2.797745e+00 5.080610e+00 5.000000e+00
    endloop
  endfacet
  facet normal 5.491678e-01 -5.339348e-01 -6.429062e-01
    outer loop
      vertex -3.099289e+00 3.923570e+00 6.000000e+00
      vertex -4.009178e+00 2.987722e+00 6.000000e+00
      vertex -4.017372e+00 4.183383e+00 5.000000e+00
    endloop
  endfacet
  facet normal 6.237004e-01 -4.989579e-01 -6.016967e-01
    outer loop
      vertex -4.017372e+00 4.183383e+00 5.000000e+00
      vertex -4.009178e+00 2.987722e+00 6.000000e+00
      vertex -4.963226e+00 3.001064e+00 5.000000e+00
    endloop
  endfacet
  facet normal 6.686479e-01 -3.736063e-01 -6.429062e-01
    outer loop
      vertex -4.963226e+00 3.001064e+00 5.000000e+00
      vertex -4.009178e+00 2.987722e+00 6.000000e+00
      vertex -4.645851e+00 1.848266e+00 6.000000e+00
    endloop
  endfacet
  facet normal 7.315881e-01 -3.205308e-01 -6.016967e-01
    outer loop
      vertex -4.963226e+00 3.001064e+00 5.000000e+00
      vertex -4.645851e+00 1.848266e+00 6.000000e+00
      vertex -5.570839e+00 1.614227e+00 5.000000e+00
    endloop
  endfacet
  facet normal 7.425606e-01 -1.878172e-01 -6.429062e-01
    outer loop
      vertex -4.645851e+00 1.848266e+00 6.000000e+00
      vertex -4.965912e+00 5.828528e-01 6.000000e+00
      vertex -5.570839e+00 1.614227e+00 5.000000e+00
    endloop
  endfacet
  facet normal 7.896193e-01 -1.202600e-01 -6.016967e-01
    outer loop
      vertex -5.570839e+00 1.614227e+00 5.000000e+00
      vertex -4.965912e+00 5.828528e-01 6.000000e+00
      vertex -5.798813e+00 1.173844e-01 5.000000e+00
    endloop
  endfacet
  facet normal 9.938835e-01 1.104338e-01 0.000000e+00
    outer loop
      vertex -5.798813e+00 1.173844e-01 0.000000e+00
      vertex -5.631599e+00 -1.387458e+00 5.000000e+00
      vertex -5.631599e+00 -1.387458e+00 0.000000e+00
    endloop
  endfacet
  facet normal 9.938835e-01 1.104338e-01 0.000000e+00
    outer loop
      vertex -5.631599e+00 -1.387458e+00 5.000000e+00
      vertex -5.798813e+00 1.173844e-01 0.000000e+00
      vertex -5.798813e+00 1.173844e-01 5.000000e+00
    endloop
  endfacet
  facet normal 9.314353e-01 3.639069e-01 0.000000e+00
    outer loop
      vertex -5.631599e+00 -1.387458e+00 0.000000e+00
      vertex -5.080612e+00 -2.797748e+00 5.000000e+00
      vertex -5.080612e+00 -2.797748e+00 0.000000e+00
    endloop
  endfacet
  facet normal 9.314353e-01 3.639069e-01 0.000000e+00
    outer loop
      vertex -5.080612e+00 -2.797748e+00 5.000000e+00
      vertex -5.631599e+00 -1.387458e+00 0.000000e+00
      vertex -5.631599e+00 -1.387458e+00 5.000000e+00
    endloop
  endfacet
  facet normal 8.055114e-01 5.925803e-01 0.000000e+00
    outer loop
      vertex -5.080612e+00 -2.797748e+00 0.000000e+00
      vertex -4.183380e+00 -4.017376e+00 5.000000e+00
      vertex -4.183380e+00 -4.017376e+00 0.000000e+00
    endloop
  endfacet
  facet normal 8.055114e-01 5.925803e-01 0.000000e+00
    outer loop
      vertex -4.183380e+00 -4.017376e+00 5.000000e+00
      vertex -5.080612e+00 -2.797748e+00 0.000000e+00
      vertex -5.080612e+00 -2.797748e+00 5.000000e+00
    endloop
  endfacet
  facet normal 6.246932e-01 7.808703e-01 0.000000e+00
    outer loop
      vertex -4.183380e+00 -4.017376e+00 5.000000e+00
      vertex -3.001060e+00 -4.963227e+00 0.000000e+00
      vertex -4.183380e+00 -4.017376e+00 0.000000e+00
    endloop
  endfacet
  facet normal 6.246932e-01 7.808703e-01 0.000000e+00
    outer loop
      vertex -3.001060e+00 -4.963227e+00 0.000000e+00
      vertex -4.183380e+00 -4.017376e+00 5.000000e+00
      vertex -3.001060e+00 -4.963227e+00 5.000000e+00
    endloop
  endfacet
  facet normal 4.013032e-01 9.159452e-01 0.000000e+00
    outer loop
      vertex -3.001060e+00 -4.963227e+00 5.000000e+00
      vertex -1.614227e+00 -5.570841e+00 0.000000e+00
      vertex -3.001060e+00 -4.963227e+00 0.000000e+00
    endloop
  endfacet
  facet normal 4.013032e-01 9.159452e-01 0.000000e+00
    outer loop
      vertex -1.614227e+00 -5.570841e+00 0.000000e+00
      vertex -3.001060e+00 -4.963227e+00 5.000000e+00
      vertex -1.614227e+00 -5.570841e+00 5.000000e+00
    endloop
  endfacet
  facet normal 1.505651e-01 9.886001e-01 0.000000e+00
    outer loop
      vertex -1.614227e+00 -5.570841e+00 5.000000e+00
      vertex -1.173859e-01 -5.798812e+00 0.000000e+00
      vertex -1.614227e+00 -5.570841e+00 0.000000e+00
    endloop
  endfacet
  facet normal 1.505651e-01 9.886001e-01 0.000000e+00
    outer loop
      vertex -1.173859e-01 -5.798812e+00 0.000000e+00
      vertex -1.614227e+00 -5.570841e+00 5.000000e+00
      vertex -1.173859e-01 -5.798812e+00 5.000000e+00
    endloop
  endfacet
  facet normal -1.104338e-01 9.938835e-01 0.000000e+00
    outer loop
      vertex -1.173859e-01 -5.798812e+00 5.000000e+00
      vertex 1.387459e+00 -5.631604e+00 0.000000e+00
      vertex -1.173859e-01 -5.798812e+00 0.000000e+00
    endloop
  endfacet
  facet normal -1.104338e-01 9.938835e-01 0.000000e+00
    outer loop
      vertex 1.387459e+00 -5.631604e+00 0.000000e+00
      vertex -1.173859e-01 -5.798812e+00 5.000000e+00
      vertex 1.387459e+00 -5.631604e+00 5.000000e+00
    endloop
  endfacet
  facet normal -3.639069e-01 9.314353e-01 0.000000e+00
    outer loop
      vertex 1.387459e+00 -5.631604e+00 5.000000e+00
      vertex 2.797752e+00 -5.080612e+00 0.000000e+00
      vertex 1.387459e+00 -5.631604e+00 0.000000e+00
    endloop
  endfacet
  facet normal -3.639069e-01 9.314353e-01 0.000000e+00
    outer loop
      vertex 2.797752e+00 -5.080612e+00 0.000000e+00
      vertex 1.387459e+00 -5.631604e+00 5.000000e+00
      vertex 2.797752e+00 -5.080612e+00 5.000000e+00
    endloop
  endfacet
  facet normal -5.925803e-01 8.055114e-01 0.000000e+00
    outer loop
      vertex 2.797752e+00 -5.080612e+00 5.000000e+00
      vertex 4.017380e+00 -4.183383e+00 0.000000e+00
      vertex 2.797752e+00 -5.080612e+00 0.000000e+00
    endloop
  endfacet
  facet normal -5.925803e-01 8.055114e-01 0.000000e+00
    outer loop
      vertex 4.017380e+00 -4.183383e+00 0.000000e+00
      vertex 2.797752e+00 -5.080612e+00 5.000000e+00
      vertex 4.017380e+00 -4.183383e+00 5.000000e+00
    endloop
  endfacet
  facet normal -7.808703e-01 6.246932e-01 0.000000e+00
    outer loop
      vertex 4.963226e+00 -3.001065e+00 5.000000e+00
      vertex 4.017380e+00 -4.183383e+00 0.000000e+00
      vertex 4.017380e+00 -4.183383e+00 5.000000e+00
    endloop
  endfacet
  facet normal -7.808703e-01 6.246932e-01 0.000000e+00
    outer loop
      vertex 4.017380e+00 -4.183383e+00 0.000000e+00
      vertex 4.963226e+00 -3.001065e+00 5.000000e+00
      vertex 4.963226e+00 -3.001065e+00 0.000000e+00
    endloop
  endfacet
  facet normal -9.159452e-01 4.013032e-01 0.000000e+00
    outer loop
      vertex 5.570839e+00 -1.614229e+00 5.000000e+00
      vertex 4.963226e+00 -3.001065e+00 0.000000e+00
      vertex 4.963226e+00 -3.001065e+00 5.000000e+00
    endloop
  endfacet
  facet normal -9.159452e-01 4.013032e-01 0.000000e+00
    outer loop
      vertex 4.963226e+00 -3.001065e+00 0.000000e+00
      vertex 5.570839e+00 -1.614229e+00 5.000000e+00
      vertex 5.570839e+00 -1.614229e+00 0.000000e+00
    endloop
  endfacet
  facet normal -9.886001e-01 1.505651e-01 0.000000e+00
    outer loop
      vertex 5.798813e+00 -1.173854e-01 5.000000e+00
      vertex 5.570839e+00 -1.614229e+00 0.000000e+00
      vertex 5.570839e+00 -1.614229e+00 5.000000e+00
    endloop
  endfacet
  facet normal -9.886001e-01 1.505651e-01 0.000000e+00
    outer loop
      vertex 5.570839e+00 -1.614229e+00 0.000000e+00
      vertex 5.798813e+00 -1.173854e-01 5.000000e+00
      vertex 5.798813e+00 -1.173854e-01 0.000000e+00
    endloop
  endfacet
  facet normal -9.938835e-01 -1.104338e-01 0.000000e+00
    outer loop
      vertex 5.631607e+00 1.387458e+00 5.000000e+00
      vertex 5.798813e+00 -1.173854e-01 0.000000e+00
      vertex 5.798813e+00 -1.173854e-01 5.000000e+00
    endloop
  endfacet
  facet normal -9.938835e-01 -1.104338e-01 0.000000e+00
    outer loop
      vertex 5.798813e+00 -1.173854e-01 0.000000e+00
      vertex 5.631607e+00 1.387458e+00 5.000000e+00
      vertex 5.631607e+00 1.387458e+00 0.000000e+00
    endloop
  endfacet
  facet normal -9.314353e-01 -3.639069e-01 0.000000e+00
    outer loop
      vertex 5.080612e+00 2.797748e+00 5.000000e+00
      vertex 5.631607e+00 1.387458e+00 0.000000e+00
      vertex 5.631607e+00 1.387458e+00 5.000000e+00
    endloop
  endfacet
  facet normal -9.314353e-01 -3.639069e-01 0.000000e+00
    outer loop
      vertex 5.631607e+00 1.387458e+00 0.000000e+00
      vertex 5.080612e+00 2.797748e+00 5.000000e+00
      vertex 5.080612e+00 2.797748e+00 0.000000e+00
    endloop
  endfacet
  facet normal -8.055114e-01 -5.925803e-01 0.000000e+00
    outer loop
      vertex 4.183380e+00 4.017375e+00 5.000000e+00
      vertex 5.080612e+00 2.797748e+00 0.000000e+00
      vertex 5.080612e+00 2.797748e+00 5.000000e+00
    endloop
  endfacet
  facet normal -8.055114e-01 -5.925803e-01 0.000000e+00
    outer loop
      vertex 5.080612e+00 2.797748e+00 0.000000e+00
      vertex 4.183380e+00 4.017375e+00 5.000000e+00
      vertex 4.183380e+00 4.017375e+00 0.000000e+00
    endloop
  endfacet
  facet normal -6.246932e-01 -7.808703e-01 0.000000e+00
    outer loop
      vertex 4.183380e+00 4.017375e+00 5.000000e+00
      vertex 3.001068e+00 4.963226e+00 0.000000e+00
      vertex 4.183380e+00 4.017375e+00 0.000000e+00
    endloop
  endfacet
  facet normal -6.246932e-01 -7.808703e-01 0.000000e+00
    outer loop
      vertex 3.001068e+00 4.963226e+00 0.000000e+00
      vertex 4.183380e+00 4.017375e+00 5.000000e+00
      vertex 3.001068e+00 4.963226e+00 5.000000e+00
    endloop
  endfacet
  facet normal -4.013032e-01 -9.159452e-01 0.000000e+00
    outer loop
      vertex 3.001068e+00 4.963226e+00 5.000000e+00
      vertex 1.614227e+00 5.570840e+00 0.000000e+00
      vertex 3.001068e+00 4.963226e+00 0.000000e+00
    endloop
  endfacet
  facet normal -4.013032e-01 -9.159452e-01 0.000000e+00
    outer loop
      vertex 1.614227e+00 5.570840e+00 0.000000e+00
      vertex 3.001068e+00 4.963226e+00 5.000000e+00
      vertex 1.614227e+00 5.570840e+00 5.000000e+00
    endloop
  endfacet
  facet normal -1.505651e-01 -9.886001e-01 0.000000e+00
    outer loop
      vertex 1.614227e+00 5.570840e+00 5.000000e+00
      vertex 1.173859e-01 5.798812e+00 0.000000e+00
      vertex 1.614227e+00 5.570840e+00 0.000000e+00
    endloop
  endfacet
  facet normal -1.505651e-01 -9.886001e-01 0.000000e+00
    outer loop
      vertex 1.173859e-01 5.798812e+00 0.000000e+00
      vertex 1.614227e+00 5.570840e+00 5.000000e+00
      vertex 1.173859e-01 5.798812e+00 5.000000e+00
    endloop
  endfacet
  facet normal 1.104338e-01 -9.938835e-01 0.000000e+00
    outer loop
      vertex 1.173859e-01 5.798812e+00 5.000000e+00
      vertex -1.387459e+00 5.631603e+00 0.000000e+00
      vertex 1.173859e-01 5.798812e+00 0.000000e+00
    endloop
  endfacet
  facet normal 1.104338e-01 -9.938835e-01 0.000000e+00
    outer loop
      vertex -1.387459e+00 5.631603e+00 0.000000e+00
      vertex 1.173859e-01 5.798812e+00 5.000000e+00
      vertex -1.387459e+00 5.631603e+00 5.000000e+00
    endloop
  endfacet
  facet normal 3.639069e-01 -9.314353e-01 0.000000e+00
    outer loop
      vertex -1.387459e+00 5.631603e+00 5.000000e+00
      vertex -2.797745e+00 5.080610e+00 0.000000e+00
      vertex -1.387459e+00 5.631603e+00 0.000000e+00
    endloop
  endfacet
  facet normal 3.639069e-01 -9.314353e-01 0.000000e+00
    outer loop
      vertex -2.797745e+00 5.080610e+00 0.000000e+00
      vertex -1.387459e+00 5.631603e+00 5.000000e+00
      vertex -2.797745e+00 5.080610e+00 5.000000e+00
    endloop
  endfacet
  facet normal 5.925803e-01 -8.055114e-01 0.000000e+00
    outer loop
      vertex -2.797745e+00 5.080610e+00 5.000000e+00
      vertex -4.017372e+00 4.183383e+00 0.000000e+00
      vertex -2.797745e+00 5.080610e+00 0.000000e+00
    endloop
  endfacet
  facet normal 5.925803e-01 -8.055114e-01 0.000000e+00
    outer loop
      vertex -4.017372e+00 4.183383e+00 0.000000e+00
      vertex -2.797745e+00 5.080610e+00 5.000000e+00
      vertex -4.017372e+00 4.183383e+00 5.000000e+00
    endloop
  endfacet
  facet normal 7.808703e-01 -6.246932e-01 0.000000e+00
    outer loop
      vertex -4.017372e+00 4.183383e+00 0.000000e+00
      vertex -4.963226e+00 3.001064e+00 5.000000e+00
      vertex -4.963226e+00 3.001064e+00 0.000000e+00
    endloop
  endfacet
  facet normal 7.808703e-01 -6.246932e-01 0.000000e+00
    outer loop
      vertex -4.963226e+00 3.001064e+00 5.000000e+00
      vertex -4.017372e+00 4.183383e+00 0.000000e+00
      vertex -4.017372e+00 4.183383e+00 5.000000e+00
    endloop
  endfacet
  facet normal 9.159452e-01 -4.013032e-01 0.000000e+00
    outer loop
      vertex -4.963226e+00 3.001064e+00 0.000000e+00
      vertex -5.570839e+00 1.614227e+00 5.000000e+00
      vertex -5.570839e+00 1.614227e+00 0.000000e+00
    endloop
  endfacet
  facet normal 9.159452e-01 -4.013032e-01 0.000000e+00
    outer loop
      vertex -5.570839e+00 1.614227e+00 5.000000e+00
      vertex -4.963226e+00 3.001064e+00 0.000000e+00
      vertex -4.963226e+00 3.001064e+00 5.000000e+00
    endloop
  endfacet
  facet normal 9.886001e-01 -1.505651e-01 0.000000e+00
    outer loop
      vertex -5.570839e+00 1.614227e+00 0.000000e+00
      vertex -5.798813e+00 1.173844e-01 5.000000e+00
      vertex -5.798813e+00 1.173844e-01 0.000000e+00
    endloop
  endfacet
  facet normal 9.886001e-01 -1.505651e-01 0.000000e+00
    outer loop
      vertex -5.798813e+00 1.173844e-01 5.000000e+00
      vertex -5.570839e+00 1.614227e+00 0.000000e+00
      vertex -5.570839e+00 1.614227e+00 5.000000e+00
    endloop
  endfacet
  facet normal 0.000000e+00 0.000000e+00 -1.000000e+00
    outer loop
      vertex -4.645851e+00 1.848266e+00 6.000000e+00
      vertex -4.947556e+00 -7.222800e-01 6.000000e+00
      vertex -4.965912e+00 5.828528e-01 6.000000e+00
    endloop
  endfacet
  facet normal 0.000000e+00 0.000000e+00 -1.000000e+00
    outer loop
      vertex -4.947556e+00 -7.222800e-01 6.000000e+00
      vertex -4.645851e+00 1.848266e+00 6.000000e+00
      vertex -4.592033e+00 -1.978190e+00 6.000000e+00
    endloop
  endfacet
  facet normal 0.000000e+00 0.000000e+00 -1.000000e+00
    outer loop
      vertex -4.592033e+00 -1.978190e+00 6.000000e+00
      vertex -4.645851e+00 1.848266e+00 6.000000e+00
      vertex -4.009178e+00 2.987722e+00 6.000000e+00
    endloop
  endfacet
  facet normal 0.000000e+00 0.000000e+00 -1.000000e+00
    outer loop
      vertex -4.592033e+00 -1.978190e+00 6.000000e+00
      vertex -4.009178e+00 2.987722e+00 6.000000e+00
      vertex -3.923569e+00 -3.099290e+00 6.000000e+00
    endloop
  endfacet
  facet normal 0.000000e+00 0.000000e+00 -1.000000e+00
    outer loop
      vertex -3.923569e+00 -3.099290e+00 6.000000e+00
      vertex -4.009178e+00 2.987722e+00 6.000000e+00
      vertex -3.099289e+00 3.923570e+00 6.000000e+00
    endloop
  endfacet
  facet normal 0.000000e+00 0.000000e+00 -1.000000e+00
    outer loop
      vertex -3.923569e+00 -3.099290e+00 6.000000e+00
      vertex -3.099289e+00 3.923570e+00 6.000000e+00
      vertex -2.987724e+00 -4.009180e+00 6.000000e+00
    endloop
  endfacet
  facet normal 0.000000e+00 0.000000e+00 -1.000000e+00
    outer loop
      vertex -2.987724e+00 -4.009180e+00 6.000000e+00
      vertex -3.099289e+00 3.923570e+00 6.000000e+00
      vertex -1.978188e+00 4.592033e+00 6.000000e+00
    endloop
  endfacet
  facet normal 0.000000e+00 0.000000e+00 -1.000000e+00
    outer loop
      vertex -2.987724e+00 -4.009180e+00 6.000000e+00
      vertex -1.978188e+00 4.592033e+00 6.000000e+00
      vertex -1.848267e+00 -4.645850e+00 6.000000e+00
    endloop
  endfacet
  facet normal 0.000000e+00 0.000000e+00 -1.000000e+00
    outer loop
      vertex -1.848267e+00 -4.645850e+00 6.000000e+00
      vertex -1.978188e+00 4.592033e+00 6.000000e+00
      vertex -7.222748e-01 4.947555e+00 6.000000e+00
    endloop
  endfacet
  facet normal 0.000000e+00 0.000000e+00 -1.000000e+00
    outer loop
      vertex -1.848267e+00 -4.645850e+00 6.000000e+00
      vertex -7.222748e-01 4.947555e+00 6.000000e+00
      vertex -5.828552e-01 -4.965912e+00 6.000000e+00
    endloop
  endfacet
  facet normal 0.000000e+00 0.000000e+00 -1.000000e+00
    outer loop
      vertex -5.828552e-01 -4.965912e+00 6.000000e+00
      vertex -7.222748e-01 4.947555e+00 6.000000e+00
      vertex 5.828552e-01 4.965911e+00 6.000000e+00
    endloop
  endfacet
  facet normal 0.000000e+00 0.000000e+00 -1.000000e+00
    outer loop
      vertex -5.828552e-01 -4.965912e+00 6.000000e+00
      vertex 5.828552e-01 4.965911e+00 6.000000e+00
      vertex 7.222824e-01 -4.947557e+00 6.000000e+00
    endloop
  endfacet
  facet normal 0.000000e+00 0.000000e+00 -1.000000e+00
    outer loop
      vertex 7.222824e-01 -4.947557e+00 6.000000e+00
      vertex 5.828552e-01 4.965911e+00 6.000000e+00
      vertex 1.848267e+00 4.645849e+00 6.000000e+00
    endloop
  endfacet
  facet normal 0.000000e+00 0.000000e+00 -1.000000e+00
    outer loop
      vertex 7.222824e-01 -4.947557e+00 6.000000e+00
      vertex 1.848267e+00 4.645849e+00 6.000000e+00
      vertex 1.978188e+00 -4.592033e+00 6.000000e+00
    endloop
  endfacet
  facet normal 0.000000e+00 0.000000e+00 -1.000000e+00
    outer loop
      vertex 1.978188e+00 -4.592033e+00 6.000000e+00
      vertex 1.848267e+00 4.645849e+00 6.000000e+00
      vertex 2.987724e+00 4.009180e+00 6.000000e+00
    endloop
  endfacet
  facet normal 0.000000e+00 0.000000e+00 -1.000000e+00
    outer loop
      vertex 1.978188e+00 -4.592033e+00 6.000000e+00
      vertex 2.987724e+00 4.009180e+00 6.000000e+00
      vertex 3.099289e+00 -3.923570e+00 6.000000e+00
    endloop
  endfacet
  facet normal 0.000000e+00 0.000000e+00 -1.000000e+00
    outer loop
      vertex 3.099289e+00 -3.923570e+00 6.000000e+00
      vertex 2.987724e+00 4.009180e+00 6.000000e+00
      vertex 3.923569e+00 3.099290e+00 6.000000e+00
    endloop
  endfacet
  facet normal 0.000000e+00 0.000000e+00 -1.000000e+00
    outer loop
      vertex 3.099289e+00 -3.923570e+00 6.000000e+00
      vertex 3.923569e+00 3.099290e+00 6.000000e+00
      vertex 4.009178e+00 -2.987722e+00 6.000000e+00
    endloop
  endfacet
  facet normal 0.000000e+00 0.000000e+00 -1.000000e+00
    outer loop
      vertex 4.009178e+00 -2.987722e+00 6.000000e+00
      vertex 3.923569e+00 3.099290e+00 6.000000e+00
      vertex 4.592033e+00 1.978189e+00 6.000000e+00
    endloop
  endfacet
  facet normal 0.000000e+00 0.000000e+00 -1.000000e+00
    outer loop
      vertex 4.009178e+00 -2.987722e+00 6.000000e+00
      vertex 4.592033e+00 1.978189e+00 6.000000e+00
      vertex 4.645851e+00 -1.848266e+00 6.000000e+00
    endloop
  endfacet
  facet normal 0.000000e+00 0.000000e+00 -1.000000e+00
    outer loop
      vertex 4.645851e+00 -1.848266e+00 6.000000e+00
      vertex 4.592033e+00 1.978189e+00 6.000000e+00
      vertex 4.947556e+00 7.222791e-01 6.000000e+00
    endloop
  endfacet
  facet normal 0.000000e+00 0.000000e+00 -1.000000e+00
    outer loop
      vertex 4.645851e+00 -1.848266e+00 6.000000e+00
      vertex 4.947556e+00 7.222791e-01 6.000000e+00
      vertex 4.965912e+00 -5.828538e-01 6.000000e+00
    endloop
  endfacet
endsolid Default
