solid Default
  facet normal 0.000000e+00 0.000000e+00 1.000000e+00
    outer loop
      vertex -4.851452e+00 -4.257255e-01 0.000000e+00
      vertex -4.851452e+00 4.257255e-01 0.000000e+00
      vertex -4.900002e+00 4.768372e-07 0.000000e+00
    endloop
  endfacet
  facet normal 0.000000e+00 0.000000e+00 1.000000e+00
    outer loop
      vertex -4.851452e+00 4.257255e-01 0.000000e+00
      vertex -4.851452e+00 -4.257255e-01 0.000000e+00
      vertex -4.708294e+00 -8.295884e-01 0.000000e+00
    endloop
  endfacet
  facet normal 0.000000e+00 0.000000e+00 1.000000e+00
    outer loop
      vertex -4.851452e+00 4.257255e-01 0.000000e+00
      vertex -4.708294e+00 -8.295884e-01 0.000000e+00
      vertex -4.708294e+00 8.295894e-01 0.000000e+00
    endloop
  endfacet
  facet normal 0.000000e+00 0.000000e+00 1.000000e+00
    outer loop
      vertex -4.708294e+00 8.295894e-01 0.000000e+00
      vertex -4.708294e+00 -8.295884e-01 0.000000e+00
      vertex -4.477882e+00 -1.190850e+00 0.000000e+00
    endloop
  endfacet
  facet normal 0.000000e+00 0.000000e+00 1.000000e+00
    outer loop
      vertex -4.708294e+00 8.295894e-01 0.000000e+00
      vertex -4.477882e+00 -1.190850e+00 0.000000e+00
      vertex -4.477882e+00 1.190851e+00 0.000000e+00
    endloop
  endfacet
  facet normal 0.000000e+00 0.000000e+00 1.000000e+00
    outer loop
      vertex -4.477882e+00 1.190851e+00 0.000000e+00
      vertex -4.477882e+00 -1.190850e+00 0.000000e+00
      vertex -4.172050e+00 -1.490958e+00 0.000000e+00
    endloop
  endfacet
  facet normal 0.000000e+00 0.000000e+00 1.000000e+00
    outer loop
      vertex -4.477882e+00 1.190851e+00 0.000000e+00
      vertex -4.172050e+00 -1.490958e+00 0.000000e+00
      vertex -4.172050e+00 1.490959e+00 0.000000e+00
    endloop
  endfacet
  facet normal 0.000000e+00 0.000000e+00 1.000000e+00
    outer loop
      vertex -4.172050e+00 1.490959e+00 0.000000e+00
      vertex -4.172050e+00 -1.490958e+00 0.000000e+00
      vertex -3.806499e+00 1.714502e+00 0.000000e+00
    endloop
  endfacet
  facet normal 0.000000e+00 0.000000e+00 1.000000e+00
    outer loop
      vertex -3.806499e+00 1.714502e+00 0.000000e+00
      vertex -4.172050e+00 -1.490958e+00 0.000000e+00
      vertex -3.806499e+00 -1.714501e+00 0.000000e+00
    endloop
  endfacet
  facet normal 0.000000e+00 0.000000e+00 1.000000e+00
    outer loop
      vertex -3.806499e+00 1.714502e+00 0.000000e+00
      vertex -3.806499e+00 -1.714501e+00 0.000000e+00
      vertex -3.400002e+00 -1.850000e+00 0.000000e+00
    endloop
  endfacet
  facet normal 0.000000e+00 0.000000e+00 1.000000e+00
    outer loop
      vertex -3.806499e+00 1.714502e+00 0.000000e+00
      vertex -3.400002e+00 -1.850000e+00 0.000000e+00
      vertex -3.400002e+00 1.850000e+00 0.000000e+00
    endloop
  endfacet
  facet normal 0.000000e+00 0.000000e+00 1.000000e+00
    outer loop
      vertex -3.400002e+00 1.850000e+00 0.000000e+00
      vertex -3.400002e+00 -1.850000e+00 0.000000e+00
      vertex 3.199997e+00 -1.850000e+00 0.000000e+00
    endloop
  endfacet
  facet normal 0.000000e+00 0.000000e+00 1.000000e+00
    outer loop
      vertex -3.400002e+00 1.850000e+00 0.000000e+00
      vertex 3.199997e+00 -1.850000e+00 0.000000e+00
      vertex 3.199997e+00 1.850000e+00 0.000000e+00
    endloop
  endfacet
  facet normal 0.000000e+00 0.000000e+00 1.000000e+00
    outer loop
      vertex 3.199997e+00 1.850000e+00 0.000000e+00
      vertex 3.199997e+00 -1.850000e+00 0.000000e+00
      vertex 3.648834e+00 -1.755123e+00 0.000000e+00
    endloop
  endfacet
  facet normal 0.000000e+00 0.000000e+00 1.000000e+00
    outer loop
      vertex 3.199997e+00 1.850000e+00 0.000000e+00
      vertex 3.648834e+00 -1.755123e+00 0.000000e+00
      vertex 3.648834e+00 1.755123e+00 0.000000e+00
    endloop
  endfacet
  facet normal 0.000000e+00 0.000000e+00 1.000000e+00
    outer loop
      vertex 3.648834e+00 1.755123e+00 0.000000e+00
      vertex 3.648834e+00 -1.755123e+00 0.000000e+00
      vertex 4.060699e+00 -1.553090e+00 0.000000e+00
    endloop
  endfacet
  facet normal 0.000000e+00 0.000000e+00 1.000000e+00
    outer loop
      vertex 3.648834e+00 1.755123e+00 0.000000e+00
      vertex 4.060699e+00 -1.553090e+00 0.000000e+00
      vertex 4.060699e+00 1.553091e+00 0.000000e+00
    endloop
  endfacet
  facet normal 0.000000e+00 0.000000e+00 1.000000e+00
    outer loop
      vertex 4.060699e+00 1.553091e+00 0.000000e+00
      vertex 4.060699e+00 -1.553090e+00 0.000000e+00
      vertex 4.410461e+00 -1.256234e+00 0.000000e+00
    endloop
  endfacet
  facet normal 0.000000e+00 0.000000e+00 1.000000e+00
    outer loop
      vertex 4.060699e+00 1.553091e+00 0.000000e+00
      vertex 4.410461e+00 -1.256234e+00 0.000000e+00
      vertex 4.410461e+00 1.256235e+00 0.000000e+00
    endloop
  endfacet
  facet normal 0.000000e+00 0.000000e+00 1.000000e+00
    outer loop
      vertex 4.410461e+00 1.256235e+00 0.000000e+00
      vertex 4.410461e+00 -1.256234e+00 0.000000e+00
      vertex 4.676750e+00 -8.826814e-01 0.000000e+00
    endloop
  endfacet
  facet normal 0.000000e+00 0.000000e+00 1.000000e+00
    outer loop
      vertex 4.410461e+00 1.256235e+00 0.000000e+00
      vertex 4.676750e+00 -8.826814e-01 0.000000e+00
      vertex 4.676750e+00 8.826823e-01 0.000000e+00
    endloop
  endfacet
  facet normal 0.000000e+00 0.000000e+00 1.000000e+00
    outer loop
      vertex 4.676750e+00 8.826823e-01 0.000000e+00
      vertex 4.676750e+00 -8.826814e-01 0.000000e+00
      vertex 4.843323e+00 -4.552379e-01 0.000000e+00
    endloop
  endfacet
  facet normal 0.000000e+00 0.000000e+00 1.000000e+00
    outer loop
      vertex 4.676750e+00 8.826823e-01 0.000000e+00
      vertex 4.843323e+00 -4.552379e-01 0.000000e+00
      vertex 4.843323e+00 4.552379e-01 0.000000e+00
    endloop
  endfacet
  facet normal 0.000000e+00 0.000000e+00 1.000000e+00
    outer loop
      vertex 4.843323e+00 4.552379e-01 0.000000e+00
      vertex 4.843323e+00 -4.552379e-01 0.000000e+00
      vertex 4.900002e+00 4.768372e-07 0.000000e+00
    endloop
  endfacet
  facet normal 0.000000e+00 0.000000e+00 -1.000000e+00
    outer loop
      vertex -4.851452e+00 4.257255e-01 5.000000e+00
      vertex -4.851452e+00 -4.257255e-01 5.000000e+00
      vertex -4.900002e+00 4.768372e-07 5.000000e+00
    endloop
  endfacet
  facet normal 0.000000e+00 0.000000e+00 -1.000000e+00
    outer loop
      vertex -4.851452e+00 -4.257255e-01 5.000000e+00
      vertex -4.851452e+00 4.257255e-01 5.000000e+00
      vertex -4.708294e+00 8.295894e-01 5.000000e+00
    endloop
  endfacet
  facet normal 0.000000e+00 0.000000e+00 -1.000000e+00
    outer loop
      vertex -4.851452e+00 -4.257255e-01 5.000000e+00
      vertex -4.708294e+00 8.295894e-01 5.000000e+00
      vertex -4.708294e+00 -8.295884e-01 5.000000e+00
    endloop
  endfacet
  facet normal 0.000000e+00 0.000000e+00 -1.000000e+00
    outer loop
      vertex -4.708294e+00 -8.295884e-01 5.000000e+00
      vertex -4.708294e+00 8.295894e-01 5.000000e+00
      vertex -4.477882e+00 1.190851e+00 5.000000e+00
    endloop
  endfacet
  facet normal 0.000000e+00 0.000000e+00 -1.000000e+00
    outer loop
      vertex -4.708294e+00 -8.295884e-01 5.000000e+00
      vertex -4.477882e+00 1.190851e+00 5.000000e+00
      vertex -4.477882e+00 -1.190850e+00 5.000000e+00
    endloop
  endfacet
  facet normal 0.000000e+00 0.000000e+00 -1.000000e+00
    outer loop
      vertex -4.477882e+00 -1.190850e+00 5.000000e+00
      vertex -4.477882e+00 1.190851e+00 5.000000e+00
      vertex -4.172050e+00 1.490959e+00 5.000000e+00
    endloop
  endfacet
  facet normal 0.000000e+00 0.000000e+00 -1.000000e+00
    outer loop
      vertex -4.477882e+00 -1.190850e+00 5.000000e+00
      vertex -4.172050e+00 1.490959e+00 5.000000e+00
      vertex -4.172050e+00 -1.490958e+00 5.000000e+00
    endloop
  endfacet
  facet normal 0.000000e+00 0.000000e+00 -1.000000e+00
    outer loop
      vertex -4.172050e+00 -1.490958e+00 5.000000e+00
      vertex -4.172050e+00 1.490959e+00 5.000000e+00
      vertex -3.806499e+00 1.714502e+00 5.000000e+00
    endloop
  endfacet
  facet normal 0.000000e+00 0.000000e+00 -1.000000e+00
    outer loop
      vertex -4.172050e+00 -1.490958e+00 5.000000e+00
      vertex -3.806499e+00 1.714502e+00 5.000000e+00
      vertex -3.806499e+00 -1.714501e+00 5.000000e+00
    endloop
  endfacet
  facet normal 0.000000e+00 0.000000e+00 -1.000000e+00
    outer loop
      vertex -3.806499e+00 -1.714501e+00 5.000000e+00
      vertex -3.806499e+00 1.714502e+00 5.000000e+00
      vertex -3.400002e+00 1.850000e+00 5.000000e+00
    endloop
  endfacet
  facet normal 0.000000e+00 0.000000e+00 -1.000000e+00
    outer loop
      vertex -3.806499e+00 -1.714501e+00 5.000000e+00
      vertex -3.400002e+00 1.850000e+00 5.000000e+00
      vertex -3.400002e+00 -1.850000e+00 5.000000e+00
    endloop
  endfacet
  facet normal 0.000000e+00 0.000000e+00 -1.000000e+00
    outer loop
      vertex -3.400002e+00 -1.850000e+00 5.000000e+00
      vertex -3.400002e+00 1.850000e+00 5.000000e+00
      vertex 3.199997e+00 1.850000e+00 5.000000e+00
    endloop
  endfacet
  facet normal 0.000000e+00 0.000000e+00 -1.000000e+00
    outer loop
      vertex -3.400002e+00 -1.850000e+00 5.000000e+00
      vertex 3.199997e+00 1.850000e+00 5.000000e+00
      vertex 3.199997e+00 -1.850000e+00 5.000000e+00
    endloop
  endfacet
  facet normal 0.000000e+00 0.000000e+00 -1.000000e+00
    outer loop
      vertex 3.199997e+00 -1.850000e+00 5.000000e+00
      vertex 3.199997e+00 1.850000e+00 5.000000e+00
      vertex 3.648834e+00 1.755123e+00 5.000000e+00
    endloop
  endfacet
  facet normal 0.000000e+00 0.000000e+00 -1.000000e+00
    outer loop
      vertex 3.199997e+00 -1.850000e+00 5.000000e+00
      vertex 3.648834e+00 1.755123e+00 5.000000e+00
      vertex 3.648834e+00 -1.755123e+00 5.000000e+00
    endloop
  endfacet
  facet normal 0.000000e+00 0.000000e+00 -1.000000e+00
    outer loop
      vertex 3.648834e+00 -1.755123e+00 5.000000e+00
      vertex 3.648834e+00 1.755123e+00 5.000000e+00
      vertex 4.060699e+00 1.553091e+00 5.000000e+00
    endloop
  endfacet
  facet normal 0.000000e+00 0.000000e+00 -1.000000e+00
    outer loop
      vertex 3.648834e+00 -1.755123e+00 5.000000e+00
      vertex 4.060699e+00 1.553091e+00 5.000000e+00
      vertex 4.060699e+00 -1.553090e+00 5.000000e+00
    endloop
  endfacet
  facet normal 0.000000e+00 0.000000e+00 -1.000000e+00
    outer loop
      vertex 4.060699e+00 -1.553090e+00 5.000000e+00
      vertex 4.060699e+00 1.553091e+00 5.000000e+00
      vertex 4.410461e+00 1.256235e+00 5.000000e+00
    endloop
  endfacet
  facet normal 0.000000e+00 0.000000e+00 -1.000000e+00
    outer loop
      vertex 4.060699e+00 -1.553090e+00 5.000000e+00
      vertex 4.410461e+00 1.256235e+00 5.000000e+00
      vertex 4.410461e+00 -1.256234e+00 5.000000e+00
    endloop
  endfacet
  facet normal 0.000000e+00 0.000000e+00 -1.000000e+00
    outer loop
      vertex 4.410461e+00 -1.256234e+00 5.000000e+00
      vertex 4.410461e+00 1.256235e+00 5.000000e+00
      vertex 4.676750e+00 8.826823e-01 5.000000e+00
    endloop
  endfacet
  facet normal 0.000000e+00 0.000000e+00 -1.000000e+00
    outer loop
      vertex 4.410461e+00 -1.256234e+00 5.000000e+00
      vertex 4.676750e+00 8.826823e-01 5.000000e+00
      vertex 4.676750e+00 -8.826814e-01 5.000000e+00
    endloop
  endfacet
  facet normal 0.000000e+00 0.000000e+00 -1.000000e+00
    outer loop
      vertex 4.676750e+00 -8.826814e-01 5.000000e+00
      vertex 4.676750e+00 8.826823e-01 5.000000e+00
      vertex 4.843323e+00 4.552379e-01 5.000000e+00
    endloop
  endfacet
  facet normal 0.000000e+00 0.000000e+00 -1.000000e+00
    outer loop
      vertex 4.676750e+00 -8.826814e-01 5.000000e+00
      vertex 4.843323e+00 4.552379e-01 5.000000e+00
      vertex 4.843323e+00 -4.552379e-01 5.000000e+00
    endloop
  endfacet
  facet normal 0.000000e+00 0.000000e+00 -1.000000e+00
    outer loop
      vertex 4.843323e+00 -4.552379e-01 5.000000e+00
      vertex 4.843323e+00 4.552379e-01 5.000000e+00
      vertex 4.900002e+00 4.768372e-07 5.000000e+00
    endloop
  endfacet
  facet normal -9.923390e-01 -1.235452e-01 0.000000e+00
    outer loop
      vertex 4.843323e+00 4.552379e-01 5.000000e+00
      vertex 4.900002e+00 4.768372e-07 0.000000e+00
      vertex 4.900002e+00 4.768372e-07 5.000000e+00
    endloop
  endfacet
  facet normal -9.923390e-01 -1.235452e-01 0.000000e+00
    outer loop
      vertex 4.900002e+00 4.768372e-07 0.000000e+00
      vertex 4.843323e+00 4.552379e-01 5.000000e+00
      vertex 4.843323e+00 4.552379e-01 0.000000e+00
    endloop
  endfacet
  facet normal -9.317530e-01 -3.630926e-01 0.000000e+00
    outer loop
      vertex 4.676750e+00 8.826823e-01 5.000000e+00
      vertex 4.843323e+00 4.552379e-01 0.000000e+00
      vertex 4.843323e+00 4.552379e-01 5.000000e+00
    endloop
  endfacet
  facet normal -9.317530e-01 -3.630926e-01 0.000000e+00
    outer loop
      vertex 4.843323e+00 4.552379e-01 0.000000e+00
      vertex 4.676750e+00 8.826823e-01 5.000000e+00
      vertex 4.676750e+00 8.826823e-01 0.000000e+00
    endloop
  endfacet
  facet normal -8.142803e-01 -5.804719e-01 0.000000e+00
    outer loop
      vertex 4.410461e+00 1.256235e+00 5.000000e+00
      vertex 4.676750e+00 8.826823e-01 0.000000e+00
      vertex 4.676750e+00 8.826823e-01 5.000000e+00
    endloop
  endfacet
  facet normal -8.142803e-01 -5.804719e-01 0.000000e+00
    outer loop
      vertex 4.676750e+00 8.826823e-01 0.000000e+00
      vertex 4.410461e+00 1.256235e+00 5.000000e+00
      vertex 4.410461e+00 1.256235e+00 0.000000e+00
    endloop
  endfacet
  facet normal -6.470927e-01 -7.624114e-01 0.000000e+00
    outer loop
      vertex 4.410461e+00 1.256235e+00 5.000000e+00
      vertex 4.060699e+00 1.553091e+00 0.000000e+00
      vertex 4.410461e+00 1.256235e+00 0.000000e+00
    endloop
  endfacet
  facet normal -6.470927e-01 -7.624114e-01 0.000000e+00
    outer loop
      vertex 4.060699e+00 1.553091e+00 0.000000e+00
      vertex 4.410461e+00 1.256235e+00 5.000000e+00
      vertex 4.060699e+00 1.553091e+00 5.000000e+00
    endloop
  endfacet
  facet normal -4.403978e-01 -8.978028e-01 0.000000e+00
    outer loop
      vertex 4.060699e+00 1.553091e+00 5.000000e+00
      vertex 3.648834e+00 1.755123e+00 0.000000e+00
      vertex 4.060699e+00 1.553091e+00 0.000000e+00
    endloop
  endfacet
  facet normal -4.403978e-01 -8.978028e-01 0.000000e+00
    outer loop
      vertex 3.648834e+00 1.755123e+00 0.000000e+00
      vertex 4.060699e+00 1.553091e+00 5.000000e+00
      vertex 3.648834e+00 1.755123e+00 5.000000e+00
    endloop
  endfacet
  facet normal -2.068150e-01 -9.783801e-01 0.000000e+00
    outer loop
      vertex 3.648834e+00 1.755123e+00 5.000000e+00
      vertex 3.199997e+00 1.850000e+00 0.000000e+00
      vertex 3.648834e+00 1.755123e+00 0.000000e+00
    endloop
  endfacet
  facet normal -2.068150e-01 -9.783801e-01 0.000000e+00
    outer loop
      vertex 3.199997e+00 1.850000e+00 0.000000e+00
      vertex 3.648834e+00 1.755123e+00 5.000000e+00
      vertex 3.199997e+00 1.850000e+00 5.000000e+00
    endloop
  endfacet
  facet normal 0.000000e+00 -1.000000e+00 0.000000e+00
    outer loop
      vertex 3.199997e+00 1.850000e+00 5.000000e+00
      vertex -3.400002e+00 1.850000e+00 0.000000e+00
      vertex 3.199997e+00 1.850000e+00 0.000000e+00
    endloop
  endfacet
  facet normal 0.000000e+00 -1.000000e+00 0.000000e+00
    outer loop
      vertex -3.400002e+00 1.850000e+00 0.000000e+00
      vertex 3.199997e+00 1.850000e+00 5.000000e+00
      vertex -3.400002e+00 1.850000e+00 5.000000e+00
    endloop
  endfacet
  facet normal 3.162268e-01 -9.486836e-01 0.000000e+00
    outer loop
      vertex -3.400002e+00 1.850000e+00 5.000000e+00
      vertex -3.806499e+00 1.714502e+00 0.000000e+00
      vertex -3.400002e+00 1.850000e+00 0.000000e+00
    endloop
  endfacet
  facet normal 3.162268e-01 -9.486836e-01 0.000000e+00
    outer loop
      vertex -3.806499e+00 1.714502e+00 0.000000e+00
      vertex -3.400002e+00 1.850000e+00 5.000000e+00
      vertex -3.806499e+00 1.714502e+00 5.000000e+00
    endloop
  endfacet
  facet normal 5.217056e-01 -8.531256e-01 0.000000e+00
    outer loop
      vertex -3.806499e+00 1.714502e+00 5.000000e+00
      vertex -4.172050e+00 1.490959e+00 0.000000e+00
      vertex -3.806499e+00 1.714502e+00 0.000000e+00
    endloop
  endfacet
  facet normal 5.217056e-01 -8.531256e-01 0.000000e+00
    outer loop
      vertex -4.172050e+00 1.490959e+00 0.000000e+00
      vertex -3.806499e+00 1.714502e+00 5.000000e+00
      vertex -4.172050e+00 1.490959e+00 5.000000e+00
    endloop
  endfacet
  facet normal 7.003933e-01 -7.137571e-01 0.000000e+00
    outer loop
      vertex -4.172050e+00 1.490959e+00 5.000000e+00
      vertex -4.477882e+00 1.190851e+00 0.000000e+00
      vertex -4.172050e+00 1.490959e+00 0.000000e+00
    endloop
  endfacet
  facet normal 7.003933e-01 -7.137571e-01 0.000000e+00
    outer loop
      vertex -4.477882e+00 1.190851e+00 0.000000e+00
      vertex -4.172050e+00 1.490959e+00 5.000000e+00
      vertex -4.477882e+00 1.190851e+00 5.000000e+00
    endloop
  endfacet
  facet normal 8.431138e-01 -5.377352e-01 0.000000e+00
    outer loop
      vertex -4.477882e+00 1.190851e+00 0.000000e+00
      vertex -4.708294e+00 8.295894e-01 5.000000e+00
      vertex -4.708294e+00 8.295894e-01 0.000000e+00
    endloop
  endfacet
  facet normal 8.431138e-01 -5.377352e-01 0.000000e+00
    outer loop
      vertex -4.708294e+00 8.295894e-01 5.000000e+00
      vertex -4.477882e+00 1.190851e+00 0.000000e+00
      vertex -4.477882e+00 1.190851e+00 5.000000e+00
    endloop
  endfacet
  facet normal 9.425380e-01 -3.340990e-01 0.000000e+00
    outer loop
      vertex -4.708294e+00 8.295894e-01 0.000000e+00
      vertex -4.851452e+00 4.257255e-01 5.000000e+00
      vertex -4.851452e+00 4.257255e-01 0.000000e+00
    endloop
  endfacet
  facet normal 9.425380e-01 -3.340990e-01 0.000000e+00
    outer loop
      vertex -4.851452e+00 4.257255e-01 5.000000e+00
      vertex -4.708294e+00 8.295894e-01 0.000000e+00
      vertex -4.708294e+00 8.295894e-01 5.000000e+00
    endloop
  endfacet
  facet normal 9.935601e-01 -1.133059e-01 0.000000e+00
    outer loop
      vertex -4.851452e+00 4.257255e-01 0.000000e+00
      vertex -4.900002e+00 4.768372e-07 5.000000e+00
      vertex -4.900002e+00 4.768372e-07 0.000000e+00
    endloop
  endfacet
  facet normal 9.935601e-01 -1.133059e-01 0.000000e+00
    outer loop
      vertex -4.900002e+00 4.768372e-07 5.000000e+00
      vertex -4.851452e+00 4.257255e-01 0.000000e+00
      vertex -4.851452e+00 4.257255e-01 5.000000e+00
    endloop
  endfacet
  facet normal 9.935601e-01 1.133059e-01 0.000000e+00
    outer loop
      vertex -4.900002e+00 4.768372e-07 0.000000e+00
      vertex -4.851452e+00 -4.257255e-01 5.000000e+00
      vertex -4.851452e+00 -4.257255e-01 0.000000e+00
    endloop
  endfacet
  facet normal 9.935601e-01 1.133059e-01 0.000000e+00
    outer loop
      vertex -4.851452e+00 -4.257255e-01 5.000000e+00
      vertex -4.900002e+00 4.768372e-07 0.000000e+00
      vertex -4.900002e+00 4.768372e-07 5.000000e+00
    endloop
  endfacet
  facet normal 9.425380e-01 3.340990e-01 0.000000e+00
    outer loop
      vertex -4.851452e+00 -4.257255e-01 0.000000e+00
      vertex -4.708294e+00 -8.295884e-01 5.000000e+00
      vertex -4.708294e+00 -8.295884e-01 0.000000e+00
    endloop
  endfacet
  facet normal 9.425380e-01 3.340990e-01 0.000000e+00
    outer loop
      vertex -4.708294e+00 -8.295884e-01 5.000000e+00
      vertex -4.851452e+00 -4.257255e-01 0.000000e+00
      vertex -4.851452e+00 -4.257255e-01 5.000000e+00
    endloop
  endfacet
  facet normal 8.431138e-01 5.377352e-01 0.000000e+00
    outer loop
      vertex -4.708294e+00 -8.295884e-01 0.000000e+00
      vertex -4.477882e+00 -1.190850e+00 5.000000e+00
      vertex -4.477882e+00 -1.190850e+00 0.000000e+00
    endloop
  endfacet
  facet normal 8.431138e-01 5.377352e-01 0.000000e+00
    outer loop
      vertex -4.477882e+00 -1.190850e+00 5.000000e+00
      vertex -4.708294e+00 -8.295884e-01 0.000000e+00
      vertex -4.708294e+00 -8.295884e-01 5.000000e+00
    endloop
  endfacet
  facet normal 7.003933e-01 7.137571e-01 0.000000e+00
    outer loop
      vertex -4.477882e+00 -1.190850e+00 5.000000e+00
      vertex -4.172050e+00 -1.490958e+00 0.000000e+00
      vertex -4.477882e+00 -1.190850e+00 0.000000e+00
    endloop
  endfacet
  facet normal 7.003933e-01 7.137571e-01 0.000000e+00
    outer loop
      vertex -4.172050e+00 -1.490958e+00 0.000000e+00
      vertex -4.477882e+00 -1.190850e+00 5.000000e+00
      vertex -4.172050e+00 -1.490958e+00 5.000000e+00
    endloop
  endfacet
  facet normal 5.217056e-01 8.531256e-01 0.000000e+00
    outer loop
      vertex -4.172050e+00 -1.490958e+00 5.000000e+00
      vertex -3.806499e+00 -1.714501e+00 0.000000e+00
      vertex -4.172050e+00 -1.490958e+00 0.000000e+00
    endloop
  endfacet
  facet normal 5.217056e-01 8.531256e-01 0.000000e+00
    outer loop
      vertex -3.806499e+00 -1.714501e+00 0.000000e+00
      vertex -4.172050e+00 -1.490958e+00 5.000000e+00
      vertex -3.806499e+00 -1.714501e+00 5.000000e+00
    endloop
  endfacet
  facet normal 3.162268e-01 9.486836e-01 0.000000e+00
    outer loop
      vertex -3.806499e+00 -1.714501e+00 5.000000e+00
      vertex -3.400002e+00 -1.850000e+00 0.000000e+00
      vertex -3.806499e+00 -1.714501e+00 0.000000e+00
    endloop
  endfacet
  facet normal 3.162268e-01 9.486836e-01 0.000000e+00
    outer loop
      vertex -3.400002e+00 -1.850000e+00 0.000000e+00
      vertex -3.806499e+00 -1.714501e+00 5.000000e+00
      vertex -3.400002e+00 -1.850000e+00 5.000000e+00
    endloop
  endfacet
  facet normal 0.000000e+00 1.000000e+00 0.000000e+00
    outer loop
      vertex -3.400002e+00 -1.850000e+00 5.000000e+00
      vertex 3.199997e+00 -1.850000e+00 0.000000e+00
      vertex -3.400002e+00 -1.850000e+00 0.000000e+00
    endloop
  endfacet
  facet normal 0.000000e+00 1.000000e+00 0.000000e+00
    outer loop
      vertex 3.199997e+00 -1.850000e+00 0.000000e+00
      vertex -3.400002e+00 -1.850000e+00 5.000000e+00
      vertex 3.199997e+00 -1.850000e+00 5.000000e+00
    endloop
  endfacet
  facet normal -2.068150e-01 9.783801e-01 0.000000e+00
    outer loop
      vertex 3.199997e+00 -1.850000e+00 5.000000e+00
      vertex 3.648834e+00 -1.755123e+00 0.000000e+00
      vertex 3.199997e+00 -1.850000e+00 0.000000e+00
    endloop
  endfacet
  facet normal -2.068150e-01 9.783801e-01 0.000000e+00
    outer loop
      vertex 3.648834e+00 -1.755123e+00 0.000000e+00
      vertex 3.199997e+00 -1.850000e+00 5.000000e+00
      vertex 3.648834e+00 -1.755123e+00 5.000000e+00
    endloop
  endfacet
  facet normal -4.403978e-01 8.978028e-01 0.000000e+00
    outer loop
      vertex 3.648834e+00 -1.755123e+00 5.000000e+00
      vertex 4.060699e+00 -1.553090e+00 0.000000e+00
      vertex 3.648834e+00 -1.755123e+00 0.000000e+00
    endloop
  endfacet
  facet normal -4.403978e-01 8.978028e-01 0.000000e+00
    outer loop
      vertex 4.060699e+00 -1.553090e+00 0.000000e+00
      vertex 3.648834e+00 -1.755123e+00 5.000000e+00
      vertex 4.060699e+00 -1.553090e+00 5.000000e+00
    endloop
  endfacet
  facet normal -6.470927e-01 7.624114e-01 0.000000e+00
    outer loop
      vertex 4.060699e+00 -1.553090e+00 5.000000e+00
      vertex 4.410461e+00 -1.256234e+00 0.000000e+00
      vertex 4.060699e+00 -1.553090e+00 0.000000e+00
    endloop
  endfacet
  facet normal -6.470927e-01 7.624114e-01 0.000000e+00
    outer loop
      vertex 4.410461e+00 -1.256234e+00 0.000000e+00
      vertex 4.060699e+00 -1.553090e+00 5.000000e+00
      vertex 4.410461e+00 -1.256234e+00 5.000000e+00
    endloop
  endfacet
  facet normal -8.142803e-01 5.804719e-01 0.000000e+00
    outer loop
      vertex 4.676750e+00 -8.826814e-01 5.000000e+00
      vertex 4.410461e+00 -1.256234e+00 0.000000e+00
      vertex 4.410461e+00 -1.256234e+00 5.000000e+00
    endloop
  endfacet
  facet normal -8.142803e-01 5.804719e-01 0.000000e+00
    outer loop
      vertex 4.410461e+00 -1.256234e+00 0.000000e+00
      vertex 4.676750e+00 -8.826814e-01 5.000000e+00
      vertex 4.676750e+00 -8.826814e-01 0.000000e+00
    endloop
  endfacet
  facet normal -9.317530e-01 3.630926e-01 0.000000e+00
    outer loop
      vertex 4.843323e+00 -4.552379e-01 5.000000e+00
      vertex 4.676750e+00 -8.826814e-01 0.000000e+00
      vertex 4.676750e+00 -8.826814e-01 5.000000e+00
    endloop
  endfacet
  facet normal -9.317530e-01 3.630926e-01 0.000000e+00
    outer loop
      vertex 4.676750e+00 -8.826814e-01 0.000000e+00
      vertex 4.843323e+00 -4.552379e-01 5.000000e+00
      vertex 4.843323e+00 -4.552379e-01 0.000000e+00
    endloop
  endfacet
  facet normal -9.923390e-01 1.235452e-01 0.000000e+00
    outer loop
      vertex 4.900002e+00 4.768372e-07 5.000000e+00
      vertex 4.843323e+00 -4.552379e-01 0.000000e+00
      vertex 4.843323e+00 -4.552379e-01 5.000000e+00
    endloop
  endfacet
  facet normal -9.923390e-01 1.235452e-01 0.000000e+00
    outer loop
      vertex 4.843323e+00 -4.552379e-01 0.000000e+00
      vertex 4.900002e+00 4.768372e-07 5.000000e+00
      vertex 4.900002e+00 4.768372e-07 0.000000e+00
    endloop
  endfacet
endsolid Default
